<?xml version="1.0" encoding="UTF-8" standalone="no"?>
<!-- Created with Inkscape (http://www.inkscape.org/) -->

<svg
   xmlns:dc="http://purl.org/dc/elements/1.1/"
   xmlns:cc="http://creativecommons.org/ns#"
   xmlns:rdf="http://www.w3.org/1999/02/22-rdf-syntax-ns#"
   xmlns:svg="http://www.w3.org/2000/svg"
   xmlns="http://www.w3.org/2000/svg"
   xmlns:sodipodi="http://sodipodi.sourceforge.net/DTD/sodipodi-0.dtd"
   xmlns:inkscape="http://www.inkscape.org/namespaces/inkscape"
   width="349.47803"
   height="114.72102"
   viewBox="0 0 92.466346 30.353375"
   version="1.1"
   id="svg8"
   inkscape:version="0.92.5 (2060ec1f9f, 2020-04-08)"
   sodipodi:docname="bolden-logo.svg">
  <defs
     id="defs2" />
  <sodipodi:namedview
     id="base"
     pagecolor="#ffffff"
     bordercolor="#666666"
     borderopacity="1.0"
     inkscape:pageopacity="0.0"
     inkscape:pageshadow="2"
     inkscape:zoom="1.979899"
     inkscape:cx="248.52782"
     inkscape:cy="14.175478"
     inkscape:document-units="px"
     inkscape:current-layer="layer1"
     showgrid="false"
     units="px"
     showguides="true"
     inkscape:guide-bbox="true"
     inkscape:snap-object-midpoints="true"
     inkscape:snap-grids="true"
     inkscape:snap-text-baseline="true"
     inkscape:window-width="2560"
     inkscape:window-height="1416"
     inkscape:window-x="0"
     inkscape:window-y="239"
     inkscape:window-maximized="0"
     inkscape:snap-others="true"
     inkscape:snap-nodes="true"
     inkscape:snap-global="false"
     inkscape:snap-intersection-paths="true"
     inkscape:snap-bbox="true"
     inkscape:object-paths="true"
     fit-margin-top="0"
     fit-margin-left="0"
     fit-margin-right="0"
     fit-margin-bottom="0"
     inkscape:snap-page="true">
    <sodipodi:guide
       position="66.145832,268.33861"
       orientation="1,0"
       id="guide3817"
       inkscape:locked="false"
       inkscape:label=""
       inkscape:color="rgb(0,0,255)" />
    <sodipodi:guide
       position="-38.219541,66.145832"
       orientation="0,1"
       id="guide3819"
       inkscape:locked="false"
       inkscape:label=""
       inkscape:color="rgb(0,0,255)" />
    <sodipodi:guide
       position="17.008981,24.710278"
       orientation="0,1"
       id="guide939"
       inkscape:locked="false" />
  </sodipodi:namedview>
  <metadata
     id="metadata5">
    <rdf:RDF>
      <cc:Work
         rdf:about="">
        <dc:format>image/svg+xml</dc:format>
        <dc:type
           rdf:resource="http://purl.org/dc/dcmitype/StillImage" />
        <dc:title />
      </cc:Work>
    </rdf:RDF>
  </metadata>
  <g
     inkscape:label="Layer 1"
     inkscape:groupmode="layer"
     id="layer1"
     transform="translate(-0.17132,-257.35596)">
    <text
       xml:space="preserve"
       style="font-style:normal;font-weight:normal;font-size:10.58333302px;line-height:1.25;font-family:sans-serif;letter-spacing:0px;word-spacing:0px;fill:#000000;fill-opacity:1;stroke:none;stroke-width:0.26458332"
       x="0.17132001"
       y="287.70932"
       id="text3715"><tspan
         sodipodi:role="line"
         x="0.17132001"
         y="287.70932"
         style="font-style:normal;font-variant:normal;font-weight:normal;font-stretch:normal;font-size:8.81944466px;font-family:sans-serif;-inkscape-font-specification:'sans-serif, Normal';font-variant-ligatures:normal;font-variant-caps:normal;font-variant-numeric:normal;font-feature-settings:normal;text-align:start;writing-mode:lr-tb;text-anchor:start;stroke-width:0.26458332"
         id="tspan3763">THERAPEUTICS</tspan></text>
    <g
       aria-label="Bolden"
       style="font-style:normal;font-weight:normal;font-size:10.58333302px;line-height:1.25;font-family:sans-serif;letter-spacing:0px;word-spacing:0px;fill:#000000;fill-opacity:1;stroke:none;stroke-width:0.26458332"
       id="text3815"
       transform="translate(-20.380066,57.213015)">
      <path
         d="m 56.927659,200.18772 h 2.53559 v 21.44227 h -2.53559 z"
         style="font-style:normal;font-variant:normal;font-weight:normal;font-stretch:normal;font-size:28.22222137px;font-family:sans-serif;-inkscape-font-specification:'sans-serif, Normal';font-variant-ligatures:normal;font-variant-caps:normal;font-variant-numeric:normal;font-feature-settings:normal;text-align:start;writing-mode:lr-tb;text-anchor:start;stroke-width:0.26458332"
         id="path3844"
         inkscape:connector-curvature="0" />
      <path
         d="m 74.924834,208.53863 v -8.35091 h 2.53559 v 21.44227 h -2.53559 v -2.3151 q -0.799262,1.37803 -2.025716,2.05327 -1.212673,0.66146 -2.921441,0.66146 -2.797417,0 -4.561306,-2.23242 -1.750109,-2.23242 -1.750109,-5.87044 0,-3.63802 1.750109,-5.87045 1.763889,-2.23242 4.561306,-2.23242 1.708768,0 2.921441,0.67524 1.226454,0.66146 2.025716,2.0395 z m -8.640299,5.38813 q 0,2.79741 1.143772,4.39594 1.157552,1.58474 3.169487,1.58474 2.011936,0 3.169488,-1.58474 1.157552,-1.59853 1.157552,-4.39594 0,-2.79742 -1.157552,-4.38216 -1.157552,-1.59853 -3.169488,-1.59853 -2.011935,0 -3.169487,1.59853 -1.143772,1.58474 -1.143772,4.38216 z"
         style="font-style:normal;font-variant:normal;font-weight:normal;font-stretch:normal;font-size:28.22222137px;font-family:sans-serif;-inkscape-font-specification:'sans-serif, Normal';font-variant-ligatures:normal;font-variant-caps:normal;font-variant-numeric:normal;font-feature-settings:normal;text-align:start;writing-mode:lr-tb;text-anchor:start;stroke-width:0.26458332"
         id="path3846"
         inkscape:connector-curvature="0" />
      <path
         d="m 95.884796,213.27908 v 1.24023 H 84.226593 q 0.165365,2.61828 1.570964,3.99631 1.419379,1.36426 3.941189,1.36426 1.46072,0 2.824978,-0.35829 1.378038,-0.35829 2.728515,-1.07487 v 2.39779 q -1.364257,0.57877 -2.797417,0.88194 -1.43316,0.30317 -2.90766,0.30317 -3.693143,0 -5.856663,-2.14974 -2.149739,-2.14974 -2.149739,-5.81532 0,-3.7896 2.039496,-6.00825 2.053277,-2.23242 5.525933,-2.23242 3.114367,0 4.919597,2.01194 1.81901,1.99815 1.81901,5.44325 z m -2.53559,-0.74414 q -0.02756,-2.08084 -1.171333,-3.32107 -1.129991,-1.24024 -3.004123,-1.24024 -2.122179,0 -3.403754,1.19889 -1.267795,1.1989 -1.460721,3.3762 z"
         style="font-style:normal;font-variant:normal;font-weight:normal;font-stretch:normal;font-size:28.22222137px;font-family:sans-serif;-inkscape-font-specification:'sans-serif, Normal';font-variant-ligatures:normal;font-variant-caps:normal;font-variant-numeric:normal;font-feature-settings:normal;text-align:start;writing-mode:lr-tb;text-anchor:start;stroke-width:0.26458332"
         id="path3848"
         inkscape:connector-curvature="0" />
      <path
         d="m 112.87601,212.31445 v 9.31554 h -2.53559 v -9.23286 q 0,-2.19108 -0.85439,-3.27973 -0.85438,-1.08865 -2.56315,-1.08865 -2.05327,0 -3.23839,1.30914 -1.18511,1.30914 -1.18511,3.56912 v 8.72298 h -2.549371 v -15.43403 h 2.549371 v 2.39779 q 0.9095,-1.39182 2.13596,-2.08084 1.24023,-0.68902 2.85254,-0.68902 2.65961,0 4.02387,1.65365 1.36426,1.63986 1.36426,4.83691 z"
         style="font-style:normal;font-variant:normal;font-weight:normal;font-stretch:normal;font-size:28.22222137px;font-family:sans-serif;-inkscape-font-specification:'sans-serif, Normal';font-variant-ligatures:normal;font-variant-caps:normal;font-variant-numeric:normal;font-feature-settings:normal;text-align:start;writing-mode:lr-tb;text-anchor:start;stroke-width:0.26458332"
         id="path3850"
         inkscape:connector-curvature="0" />
      <path
         inkscape:connector-curvature="0"
         id="path936"
         style="font-style:normal;font-variant:normal;font-weight:normal;font-stretch:normal;font-size:28.22222137px;font-family:sans-serif;-inkscape-font-specification:'sans-serif, Normal';font-variant-ligatures:normal;font-variant-caps:normal;font-variant-numeric:normal;font-feature-settings:normal;text-align:start;writing-mode:lr-tb;text-anchor:start;stroke-width:0.26458332"
         d="m 23.086976,208.51501 v -8.35091 h -2.53559 v 21.44227 h 2.53559 v -2.3151 q 0.799262,1.37803 2.025716,2.05327 1.212673,0.66146 2.921441,0.66146 2.797417,0 4.561306,-2.23242 1.750109,-2.23242 1.750109,-5.87044 0,-3.63802 -1.750109,-5.87045 -1.763889,-2.23242 -4.561306,-2.23242 -1.708768,0 -2.921441,0.67524 -1.226454,0.66146 -2.025716,2.0395 z m 8.640299,5.38813 q 0,2.79741 -1.143772,4.39594 -1.157552,1.58474 -3.169487,1.58474 -2.011936,0 -3.169488,-1.58474 -1.157552,-1.59853 -1.157552,-4.39594 0,-2.79742 1.157552,-4.38216 1.157552,-1.59853 3.169488,-1.59853 2.011935,0 3.169487,1.59853 1.143772,1.58474 1.143772,4.38216 z" />
    </g>
    <flowRoot
       xml:space="preserve"
       id="flowRoot3853"
       style="font-style:normal;font-weight:normal;font-size:40px;line-height:1.25;font-family:sans-serif;letter-spacing:0px;word-spacing:0px;fill:#000000;fill-opacity:1;stroke:none"
       transform="matrix(0.26458333,0,0,0.26458333,0,164.70832)"><flowRegion
         id="flowRegion3855"><rect
           id="rect3857"
           width="309.10669"
           height="132.32999"
           x="93.944183"
           y="335.34512" /></flowRegion><flowPara
         id="flowPara3859" /></flowRoot>    <flowRoot
       xml:space="preserve"
       id="flowRoot3865"
       style="font-style:normal;font-weight:normal;font-size:40px;line-height:1.25;font-family:sans-serif;letter-spacing:0px;word-spacing:0px;fill:#000000;fill-opacity:1;stroke:none"
       transform="matrix(0.26458333,0,0,0.26458333,0,164.70832)"><flowRegion
         id="flowRegion3867"><rect
           id="rect3869"
           width="286.88333"
           height="137.38075"
           x="94.954338"
           y="326.25375" /></flowRegion><flowPara
         id="flowPara3871" /></flowRoot>    <flowRoot
       xml:space="preserve"
       id="flowRoot3873"
       style="font-style:normal;font-weight:normal;font-size:40px;line-height:1.25;font-family:sans-serif;letter-spacing:0px;word-spacing:0px;fill:#000000;fill-opacity:1;stroke:none"
       transform="matrix(0.26458333,0,0,0.26458333,0,164.70832)"><flowRegion
         id="flowRegion3875"><rect
           id="rect3877"
           width="417.19299"
           height="161.6244"
           x="41.416256"
           y="323.2233" /></flowRegion><flowPara
         id="flowPara3879" /></flowRoot>    <path
       style="fill:#3f6288;fill-opacity:1;stroke-width:0.23999979"
       d="m 25.246945,262.99905 a 8.1216198,8.1216198 0 0 0 -8.121554,8.12204 8.1216198,8.1216198 0 0 0 8.121554,8.12155 8.1216198,8.1216198 0 0 0 8.121556,-8.12155 8.1216198,8.1216198 0 0 0 -8.121556,-8.12204 z m 0,4.60641 a 3.5153278,3.5153278 0 0 1 3.515153,3.51563 3.5153278,3.5153278 0 0 1 -3.515153,3.51515 3.5153278,3.5153278 0 0 1 -3.515623,-3.51515 3.5153278,3.5153278 0 0 1 3.515623,-3.51563 z"
       id="path3899"
       inkscape:connector-curvature="0" />
  </g>
</svg>
