<?xml version="1.0" encoding="UTF-8" standalone="no"?>
<!-- Created with Inkscape (http://www.inkscape.org/) -->

<svg
   xmlns:dc="http://purl.org/dc/elements/1.1/"
   xmlns:cc="http://creativecommons.org/ns#"
   xmlns:rdf="http://www.w3.org/1999/02/22-rdf-syntax-ns#"
   xmlns:svg="http://www.w3.org/2000/svg"
   xmlns="http://www.w3.org/2000/svg"
   xmlns:sodipodi="http://sodipodi.sourceforge.net/DTD/sodipodi-0.dtd"
   xmlns:inkscape="http://www.inkscape.org/namespaces/inkscape"
   width="843.04706"
   height="68.395317"
   viewBox="0 0 223.05619 18.096261"
   version="1.1"
   id="svg999"
   inkscape:version="0.92.5 (2060ec1f9f, 2020-04-08)"
   sodipodi:docname="long-squiggle-circles.svg"
   inkscape:export-filename="/home/sam/Pictures/long-squiggle-circles.png"
   inkscape:export-xdpi="96"
   inkscape:export-ydpi="96">
  <defs
     id="defs993" />
  <sodipodi:namedview
     id="base"
     pagecolor="#ffffff"
     bordercolor="#666666"
     borderopacity="1.0"
     inkscape:pageopacity="0.0"
     inkscape:pageshadow="2"
     inkscape:zoom="1.4"
     inkscape:cx="525.02456"
     inkscape:cy="2.3676059"
     inkscape:document-units="mm"
     inkscape:current-layer="layer1"
     showgrid="false"
     units="px"
     showguides="true"
     inkscape:guide-bbox="true"
     inkscape:snap-to-guides="false"
     inkscape:object-paths="true"
     inkscape:window-width="2560"
     inkscape:window-height="1416"
     inkscape:window-x="0"
     inkscape:window-y="239"
     inkscape:window-maximized="0"
     fit-margin-top="0"
     fit-margin-left="0"
     fit-margin-right="0"
     fit-margin-bottom="0">
    <sodipodi:guide
       position="111.53131,73.020674"
       orientation="1,0"
       id="guide1624"
       inkscape:locked="false"
       inkscape:label=""
       inkscape:color="rgb(0,0,255)" />
    <sodipodi:guide
       position="48.881757,9.0482035"
       orientation="0,1"
       id="guide1626"
       inkscape:locked="false"
       inkscape:label=""
       inkscape:color="rgb(0,0,255)" />
  </sodipodi:namedview>
  <metadata
     id="metadata996">
    <rdf:RDF>
      <cc:Work
         rdf:about="">
        <dc:format>image/svg+xml</dc:format>
        <dc:type
           rdf:resource="http://purl.org/dc/dcmitype/StillImage" />
        <dc:title></dc:title>
      </cc:Work>
    </rdf:RDF>
  </metadata>
  <g
     inkscape:label="Layer 1"
     inkscape:groupmode="layer"
     id="layer1"
     transform="translate(58.614645,-274.72276)">
    <path
       style="fill:#3f6288;fill-opacity:1;stroke-width:0.99999666"
       d="M 33.839844 0 A 33.840001 33.840001 0 0 0 0 33.839844 A 33.840001 33.840001 0 0 0 0.01171875 34.197266 A 33.840001 33.840001 0 0 0 0 34.554688 A 33.840001 33.840001 0 0 0 33.839844 68.394531 A 33.840001 33.840001 0 0 0 58.091797 58.152344 A 33.840001 33.840001 0 0 0 82.300781 68.394531 A 33.840001 33.840001 0 0 0 116.14062 34.554688 A 33.840001 33.840001 0 0 0 116.12305 34.197266 L 116.13086 34.197266 A 14.647164 14.647164 0 0 1 116.11328 33.839844 A 14.647164 14.647164 0 0 1 130.76172 19.193359 A 14.647164 14.647164 0 0 1 145.4082 33.839844 A 14.647164 14.647164 0 0 1 145.39453 34.197266 A 33.840001 33.840001 0 0 0 145.38281 34.554688 A 33.840001 33.840001 0 0 0 179.22266 68.394531 A 33.840001 33.840001 0 0 0 213.0625 34.554688 A 33.840001 33.840001 0 0 0 213.04492 34.197266 L 213.05078 34.197266 A 14.647164 14.647164 0 0 1 213.03516 33.839844 A 14.647164 14.647164 0 0 1 227.68359 19.193359 A 14.647164 14.647164 0 0 1 242.33008 33.839844 A 14.647164 14.647164 0 0 1 242.31641 34.197266 A 33.840001 33.840001 0 0 0 242.30469 34.554688 A 33.840001 33.840001 0 0 0 276.14453 68.394531 A 33.840001 33.840001 0 0 0 309.98438 34.554688 A 33.840001 33.840001 0 0 0 309.96484 34.197266 L 309.97266 34.197266 A 14.647164 14.647164 0 0 1 309.95508 33.839844 A 14.647164 14.647164 0 0 1 324.60352 19.193359 A 14.647164 14.647164 0 0 1 339.25 33.839844 A 14.647164 14.647164 0 0 1 339.23633 34.197266 A 33.840001 33.840001 0 0 0 339.22461 34.554688 A 33.840001 33.840001 0 0 0 373.06445 68.394531 A 33.840001 33.840001 0 0 0 397.32227 58.146484 A 33.840001 33.840001 0 0 0 421.53516 68.394531 A 33.840001 33.840001 0 0 0 455.375 34.554688 A 33.840001 33.840001 0 0 0 455.35742 34.197266 L 455.37305 34.197266 A 14.647164 14.647164 0 0 1 455.35547 33.839844 A 14.647164 14.647164 0 0 1 470.00391 19.193359 A 14.647164 14.647164 0 0 1 484.65039 33.839844 A 14.647164 14.647164 0 0 1 484.63672 34.197266 A 33.840001 33.840001 0 0 0 484.625 34.554688 A 33.840001 33.840001 0 0 0 518.46484 68.394531 A 33.840001 33.840001 0 0 0 552.30469 34.554688 A 33.840001 33.840001 0 0 0 552.28711 34.197266 A 14.647164 14.647164 0 0 1 552.26953 33.839844 A 14.647164 14.647164 0 0 1 566.91797 19.193359 A 14.647164 14.647164 0 0 1 581.56445 33.839844 A 14.647164 14.647164 0 0 1 581.55078 34.197266 A 33.840001 33.840001 0 0 0 581.53906 34.554688 A 33.840001 33.840001 0 0 0 615.37891 68.394531 A 33.840001 33.840001 0 0 0 649.21875 34.554688 A 33.840001 33.840001 0 0 0 649.20117 34.197266 L 649.20312 34.197266 A 14.647164 14.647164 0 0 1 649.18359 33.839844 A 14.647164 14.647164 0 0 1 663.83203 19.193359 A 14.647164 14.647164 0 0 1 678.47852 33.839844 A 14.647164 14.647164 0 0 1 678.46289 34.197266 L 678.46484 34.197266 A 33.840001 33.840001 0 0 0 678.45312 34.554688 A 33.840001 33.840001 0 0 0 712.29297 68.394531 A 33.840001 33.840001 0 0 0 746.13281 34.554688 A 33.840001 33.840001 0 0 0 746.11328 34.197266 L 746.11719 34.197266 A 14.647164 14.647164 0 0 1 746.09766 33.839844 A 14.647164 14.647164 0 0 1 760.74609 19.193359 A 14.647164 14.647164 0 0 1 775.39258 33.839844 A 14.647164 14.647164 0 0 1 775.37891 34.197266 A 33.840001 33.840001 0 0 0 775.36719 34.554688 A 33.840001 33.840001 0 0 0 775.37695 34.748047 A 33.840001 33.840001 0 0 0 775.36719 34.941406 A 33.840001 33.840001 0 0 0 775.37891 35.298828 L 775.4043 35.298828 A 33.840001 33.840001 0 0 0 809.20703 68.394531 A 33.840001 33.840001 0 0 0 843.02148 35.298828 L 843.02734 35.298828 A 33.840001 33.840001 0 0 0 843.04688 34.941406 A 33.840001 33.840001 0 0 0 843.04102 34.748047 A 33.840001 33.840001 0 0 0 843.04688 34.554688 A 33.840001 33.840001 0 0 0 843.02734 34.197266 L 843.02148 34.197266 A 33.840001 33.840001 0 0 0 809.20703 1.1015625 A 33.840001 33.840001 0 0 0 785.5 10.806641 A 33.840001 33.840001 0 0 0 760.74609 0 A 33.840001 33.840001 0 0 0 726.90625 33.839844 A 33.840001 33.840001 0 0 0 726.91797 34.197266 L 726.92383 34.197266 A 14.647164 14.647164 0 0 1 726.93945 34.554688 A 14.647164 14.647164 0 0 1 712.29297 49.201172 A 14.647164 14.647164 0 0 1 697.64453 34.554688 A 14.647164 14.647164 0 0 1 697.66406 34.197266 L 697.65234 34.197266 A 33.840001 33.840001 0 0 0 697.67188 33.839844 A 33.840001 33.840001 0 0 0 663.83203 0 A 33.840001 33.840001 0 0 0 629.99219 33.839844 A 33.840001 33.840001 0 0 0 630.00391 34.197266 L 630.01172 34.197266 A 14.647164 14.647164 0 0 1 630.02539 34.554688 A 14.647164 14.647164 0 0 1 615.37891 49.201172 A 14.647164 14.647164 0 0 1 600.73047 34.554688 A 14.647164 14.647164 0 0 1 600.75 34.197266 L 600.74023 34.197266 A 33.840001 33.840001 0 0 0 600.75977 33.839844 A 33.840001 33.840001 0 0 0 566.91992 0 A 33.840001 33.840001 0 0 0 533.08008 33.839844 A 33.840001 33.840001 0 0 0 533.0918 34.197266 L 533.09766 34.197266 A 14.647164 14.647164 0 0 1 533.11133 34.554688 A 14.647164 14.647164 0 0 1 518.46484 49.201172 A 14.647164 14.647164 0 0 1 503.81641 34.554688 A 14.647164 14.647164 0 0 1 503.83398 34.197266 L 503.82617 34.197266 A 33.840001 33.840001 0 0 0 503.84375 33.839844 A 33.840001 33.840001 0 0 0 470.00391 0 A 33.840001 33.840001 0 0 0 445.4375 10.626953 A 33.840001 33.840001 0 0 0 421.53516 0.71484375 A 33.840001 33.840001 0 0 0 387.70898 34.197266 L 387.69727 34.197266 A 14.647164 14.647164 0 0 1 387.70312 34.34375 A 33.840001 33.840001 0 0 0 387.69531 34.554688 A 33.840001 33.840001 0 0 0 387.70312 34.710938 A 14.647164 14.647164 0 0 1 373.06445 49.201172 A 14.647164 14.647164 0 0 1 358.41602 34.554688 A 14.647164 14.647164 0 0 1 358.43359 34.197266 L 358.42578 34.197266 A 33.840001 33.840001 0 0 0 358.44336 33.839844 A 33.840001 33.840001 0 0 0 324.60352 0 A 33.840001 33.840001 0 0 0 290.76367 33.839844 A 33.840001 33.840001 0 0 0 290.77539 34.197266 A 14.647164 14.647164 0 0 1 290.78906 34.554688 A 14.647164 14.647164 0 0 1 276.14258 49.201172 A 14.647164 14.647164 0 0 1 261.49414 34.554688 A 14.647164 14.647164 0 0 1 261.51172 34.197266 L 261.50586 34.197266 A 33.840001 33.840001 0 0 0 261.52344 33.839844 A 33.840001 33.840001 0 0 0 227.68359 0 A 33.840001 33.840001 0 0 0 193.84375 33.839844 A 33.840001 33.840001 0 0 0 193.85547 34.197266 A 14.647164 14.647164 0 0 1 193.86914 34.554688 A 14.647164 14.647164 0 0 1 179.22266 49.201172 A 14.647164 14.647164 0 0 1 164.57422 34.554688 A 14.647164 14.647164 0 0 1 164.5918 34.197266 L 164.58398 34.197266 A 33.840001 33.840001 0 0 0 164.60156 33.839844 A 33.840001 33.840001 0 0 0 130.76172 0 A 33.840001 33.840001 0 0 0 96.921875 33.839844 A 33.840001 33.840001 0 0 0 96.933594 34.197266 A 14.647164 14.647164 0 0 1 96.947266 34.554688 A 14.647164 14.647164 0 0 1 82.300781 49.201172 A 14.647164 14.647164 0 0 1 67.666016 34.941406 A 33.840001 33.840001 0 0 0 67.679688 34.554688 A 33.840001 33.840001 0 0 0 67.666016 34.277344 A 14.647164 14.647164 0 0 1 67.669922 34.197266 L 67.662109 34.197266 A 33.840001 33.840001 0 0 0 67.679688 33.839844 A 33.840001 33.840001 0 0 0 33.839844 0 z M 33.839844 19.193359 A 14.647164 14.647164 0 0 1 48.486328 33.839844 A 14.647164 14.647164 0 0 1 48.472656 34.197266 A 33.840001 33.840001 0 0 0 48.460938 34.554688 A 33.840001 33.840001 0 0 0 48.472656 34.806641 A 14.647164 14.647164 0 0 1 33.839844 49.201172 A 14.647164 14.647164 0 0 1 19.191406 34.554688 A 14.647164 14.647164 0 0 1 19.208984 34.197266 A 14.647164 14.647164 0 0 1 19.191406 33.839844 A 14.647164 14.647164 0 0 1 33.839844 19.193359 z M 421.53516 19.90625 A 14.647164 14.647164 0 0 1 436.18164 34.554688 A 14.647164 14.647164 0 0 1 421.53516 49.201172 A 14.647164 14.647164 0 0 1 406.89648 34.802734 A 33.840001 33.840001 0 0 0 406.9043 34.554688 A 33.840001 33.840001 0 0 0 406.89648 34.378906 A 14.647164 14.647164 0 0 1 421.53516 19.90625 z M 809.20703 20.294922 A 14.647164 14.647164 0 0 1 823.84375 34.748047 A 14.647164 14.647164 0 0 1 809.20703 49.201172 A 14.647164 14.647164 0 0 1 794.56641 34.748047 A 14.647164 14.647164 0 0 1 809.20703 20.294922 z "
       transform="matrix(0.26458333,0,0,0.26458333,-58.614645,274.72276)"
       id="path3899" />
  </g>
</svg>
