<?xml version="1.0" encoding="UTF-8" standalone="no"?>
<!-- Created with Inkscape (http://www.inkscape.org/) -->

<svg
   xmlns:dc="http://purl.org/dc/elements/1.1/"
   xmlns:cc="http://creativecommons.org/ns#"
   xmlns:rdf="http://www.w3.org/1999/02/22-rdf-syntax-ns#"
   xmlns:svg="http://www.w3.org/2000/svg"
   xmlns="http://www.w3.org/2000/svg"
   xmlns:sodipodi="http://sodipodi.sourceforge.net/DTD/sodipodi-0.dtd"
   xmlns:inkscape="http://www.inkscape.org/namespaces/inkscape"
   width="400"
   height="100"
   viewBox="0 0 105.83333 26.458334"
   version="1.1"
   id="svg999"
   inkscape:version="0.92.5 (2060ec1f9f, 2020-04-08)"
   sodipodi:docname="long-squiggle.ink.svg"
   inkscape:export-filename="/home/sam/Pictures/long-squiggle.png"
   inkscape:export-xdpi="96"
   inkscape:export-ydpi="96">
  <defs
     id="defs993" />
  <sodipodi:namedview
     id="base"
     pagecolor="#ffffff"
     bordercolor="#666666"
     borderopacity="1.0"
     inkscape:pageopacity="0.0"
     inkscape:pageshadow="2"
     inkscape:zoom="1.4"
     inkscape:cx="-27.566357"
     inkscape:cy="18.169672"
     inkscape:document-units="mm"
     inkscape:current-layer="layer1"
     showgrid="false"
     units="px"
     showguides="true"
     inkscape:guide-bbox="true"
     inkscape:snap-to-guides="false"
     inkscape:object-paths="true"
     inkscape:window-width="1270"
     inkscape:window-height="1404"
     inkscape:window-x="4"
     inkscape:window-y="243"
     inkscape:window-maximized="0">
    <sodipodi:guide
       position="52.916666,77.201639"
       orientation="1,0"
       id="guide1624"
       inkscape:locked="false"
       inkscape:label=""
       inkscape:color="rgb(0,0,255)" />
    <sodipodi:guide
       position="-9.7328866,13.229167"
       orientation="0,1"
       id="guide1626"
       inkscape:locked="false"
       inkscape:label=""
       inkscape:color="rgb(0,0,255)" />
  </sodipodi:namedview>
  <metadata
     id="metadata996">
    <rdf:RDF>
      <cc:Work
         rdf:about="">
        <dc:format>image/svg+xml</dc:format>
        <dc:type
           rdf:resource="http://purl.org/dc/dcmitype/StillImage" />
        <dc:title />
      </cc:Work>
    </rdf:RDF>
  </metadata>
  <g
     inkscape:label="Layer 1"
     inkscape:groupmode="layer"
     id="layer1"
     transform="translate(0,-270.54165)">
    <path
       style="fill:#3f6288;fill-opacity:1;stroke-width:0.26458246"
       d="m 52.916666,274.91164 a 8.9535003,8.9535003 0 0 0 -8.953428,8.95395 8.9535003,8.9535003 0 0 0 8.953428,8.95343 8.9535003,8.9535003 0 0 0 8.953429,-8.95343 8.9535003,8.9535003 0 0 0 -8.953429,-8.95395 z m 0,5.07823 a 3.8753955,3.8753955 0 0 1 3.875202,3.87572 3.8753955,3.8753955 0 0 1 -3.875202,3.87521 3.8753955,3.8753955 0 0 1 -3.87572,-3.87521 3.8753955,3.8753955 0 0 1 3.87572,-3.87572 z"
       id="path3899"
       inkscape:connector-curvature="0" />
    <path
       style="fill:#3f6288;fill-opacity:1;stroke-width:0.26458246"
       d="m 56.790436,283.77082 a 8.9535002,8.9535002 0 0 1 -0.0031,-0.0946 8.9535002,8.9535002 0 0 1 8.953458,-8.95346 8.9535002,8.9535002 0 0 1 8.95346,8.95346 8.9535002,8.9535002 0 0 1 -0.0047,0.0946 h -5.077208 a 3.8753954,3.8753954 0 0 0 0.0036,-0.0946 3.8753954,3.8753954 0 0 0 -3.875217,-3.87522 3.8753954,3.8753954 0 0 0 -3.875731,3.87522 3.8753954,3.8753954 0 0 0 0.0046,0.0946 z"
       id="path1628"
       inkscape:connector-curvature="0" />
    <path
       inkscape:connector-curvature="0"
       style="fill:#3f6288;fill-opacity:1;stroke-width:0.26458246"
       d="m 69.612346,283.77082 a 8.9535002,8.9535002 0 0 0 -0.0031,0.0946 8.9535002,8.9535002 0 0 0 8.953458,8.95346 8.9535002,8.9535002 0 0 0 8.95346,-8.95346 8.9535002,8.9535002 0 0 0 -0.0047,-0.0946 h -5.077208 a 3.8753954,3.8753954 0 0 1 0.0036,0.0946 3.8753954,3.8753954 0 0 1 -3.875217,3.87522 3.8753954,3.8753954 0 0 1 -3.875731,-3.87522 3.8753954,3.8753954 0 0 1 0.0046,-0.0946 z"
       id="path1646" />
    <path
       inkscape:connector-curvature="0"
       id="path1648"
       d="m 18.319915,283.77082 a 8.9535002,8.9535002 0 0 1 -0.0031,-0.0946 8.9535002,8.9535002 0 0 1 8.953458,-8.95346 8.9535002,8.9535002 0 0 1 8.95346,8.95346 8.9535002,8.9535002 0 0 1 -0.0047,0.0946 h -5.077208 a 3.8753954,3.8753954 0 0 0 0.0036,-0.0946 3.8753954,3.8753954 0 0 0 -3.875217,-3.87522 3.8753954,3.8753954 0 0 0 -3.875731,3.87522 3.8753954,3.8753954 0 0 0 0.0046,0.0946 z"
       style="fill:#3f6288;fill-opacity:1;stroke-width:0.26458246" />
    <path
       id="path1650"
       d="m 31.141825,283.77082 a 8.9535002,8.9535002 0 0 0 -0.0031,0.0946 8.9535002,8.9535002 0 0 0 8.953458,8.95346 8.9535002,8.9535002 0 0 0 8.95346,-8.95346 8.9535002,8.9535002 0 0 0 -0.0047,-0.0946 h -5.077208 a 3.8753954,3.8753954 0 0 1 0.0036,0.0946 3.8753954,3.8753954 0 0 1 -3.875217,3.87522 3.8753954,3.8753954 0 0 1 -3.875731,-3.87522 3.8753954,3.8753954 0 0 1 0.0046,-0.0946 z"
       style="fill:#3f6288;fill-opacity:1;stroke-width:0.26458246"
       inkscape:connector-curvature="0" />
    <path
       inkscape:connector-curvature="0"
       id="path1652"
       d="m 82.432302,283.77082 a 8.9535002,8.9535002 0 0 1 -0.0031,-0.0946 8.9535002,8.9535002 0 0 1 8.953458,-8.95346 8.9535002,8.9535002 0 0 1 8.95346,8.95346 8.9535002,8.9535002 0 0 1 -0.005,0.0946 h -5.077208 a 3.8753954,3.8753954 0 0 0 0.0036,-0.0946 3.8753954,3.8753954 0 0 0 -3.875217,-3.87522 3.8753954,3.8753954 0 0 0 -3.875731,3.87522 3.8753954,3.8753954 0 0 0 0.0046,0.0946 z"
       style="fill:#3f6288;fill-opacity:1;stroke-width:0.26458246" />
    <path
       id="path1654"
       d="m 95.254212,283.77082 a 8.9535002,8.9535002 0 0 0 -0.0031,0.0946 8.9535002,8.9535002 0 0 0 8.953458,8.95346 8.9535002,8.9535002 0 0 0 8.95346,-8.95346 8.9535002,8.9535002 0 0 0 -0.005,-0.0946 h -5.07721 a 3.8753954,3.8753954 0 0 1 0.004,0.0946 3.8753954,3.8753954 0 0 1 -3.87522,3.87522 3.8753954,3.8753954 0 0 1 -3.87573,-3.87522 3.8753954,3.8753954 0 0 1 0.005,-0.0946 z"
       style="fill:#3f6288;fill-opacity:1;stroke-width:0.26458246"
       inkscape:connector-curvature="0" />
    <path
       style="fill:#3f6288;fill-opacity:1;stroke-width:0.26458246"
       d="m -7.323905,283.77082 a 8.9535002,8.9535002 0 0 1 -0.0031,-0.0946 8.9535002,8.9535002 0 0 1 8.953458,-8.95346 8.9535002,8.9535002 0 0 1 8.95346,8.95346 8.9535002,8.9535002 0 0 1 -0.0047,0.0946 H 5.498005 a 3.8753954,3.8753954 0 0 0 0.0036,-0.0946 3.8753954,3.8753954 0 0 0 -3.875217,-3.87522 3.8753954,3.8753954 0 0 0 -3.875731,3.87522 3.8753954,3.8753954 0 0 0 0.0046,0.0946 z"
       id="path1656"
       inkscape:connector-curvature="0" />
    <path
       inkscape:connector-curvature="0"
       style="fill:#3f6288;fill-opacity:1;stroke-width:0.26458246"
       d="m 5.498005,283.77082 a 8.9535002,8.9535002 0 0 0 -0.0031,0.0946 8.9535002,8.9535002 0 0 0 8.953458,8.95346 8.9535002,8.9535002 0 0 0 8.95346,-8.95346 8.9535002,8.9535002 0 0 0 -0.0047,-0.0946 h -5.077208 a 3.8753954,3.8753954 0 0 1 0.0036,0.0946 3.8753954,3.8753954 0 0 1 -3.875217,3.87522 3.8753954,3.8753954 0 0 1 -3.875731,-3.87522 3.8753954,3.8753954 0 0 1 0.0046,-0.0946 z"
       id="path1658" />
    <path
       style="fill:#3f6288;fill-opacity:1;stroke-width:0.26458246"
       d="m -32.967725,283.77082 a 8.9535002,8.9535002 0 0 1 -0.0031,-0.0946 8.9535002,8.9535002 0 0 1 8.953458,-8.95346 8.9535002,8.9535002 0 0 1 8.95346,8.95346 8.9535002,8.9535002 0 0 1 -0.0047,0.0946 h -5.077208 a 3.8753954,3.8753954 0 0 0 0.0036,-0.0946 3.8753954,3.8753954 0 0 0 -3.875217,-3.87522 3.8753954,3.8753954 0 0 0 -3.875731,3.87522 3.8753954,3.8753954 0 0 0 0.0046,0.0946 z"
       id="path1660"
       inkscape:connector-curvature="0" />
    <path
       inkscape:connector-curvature="0"
       style="fill:#3f6288;fill-opacity:1;stroke-width:0.26458246"
       d="m -20.145815,283.77082 a 8.9535002,8.9535002 0 0 0 -0.0031,0.0946 8.9535002,8.9535002 0 0 0 8.953458,8.95346 8.9535002,8.9535002 0 0 0 8.95346,-8.95346 8.9535002,8.9535002 0 0 0 -0.0047,-0.0946 h -5.077208 a 3.8753954,3.8753954 0 0 1 0.0036,0.0946 3.8753954,3.8753954 0 0 1 -3.875217,3.87522 3.8753954,3.8753954 0 0 1 -3.875731,-3.87522 3.8753954,3.8753954 0 0 1 0.0046,-0.0946 z"
       id="path1662" />
    <path
       inkscape:connector-curvature="0"
       id="path1664"
       d="m -58.611545,283.77082 a 8.9535002,8.9535002 0 0 1 -0.0031,-0.0946 8.9535002,8.9535002 0 0 1 8.953458,-8.95346 8.9535002,8.9535002 0 0 1 8.95346,8.95346 8.9535002,8.9535002 0 0 1 -0.0047,0.0946 h -5.077208 a 3.8753954,3.8753954 0 0 0 0.0036,-0.0946 3.8753954,3.8753954 0 0 0 -3.875217,-3.87522 3.8753954,3.8753954 0 0 0 -3.875731,3.87522 3.8753954,3.8753954 0 0 0 0.0046,0.0946 z"
       style="fill:#3f6288;fill-opacity:1;stroke-width:0.26458246" />
    <path
       id="path1666"
       d="m -45.789635,283.77082 a 8.9535002,8.9535002 0 0 0 -0.0031,0.0946 8.9535002,8.9535002 0 0 0 8.953458,8.95346 8.9535002,8.9535002 0 0 0 8.95346,-8.95346 8.9535002,8.9535002 0 0 0 -0.0047,-0.0946 h -5.077208 a 3.8753954,3.8753954 0 0 1 0.0036,0.0946 3.8753954,3.8753954 0 0 1 -3.875217,3.87522 3.8753954,3.8753954 0 0 1 -3.875731,-3.87522 3.8753954,3.8753954 0 0 1 0.0046,-0.0946 z"
       style="fill:#3f6288;fill-opacity:1;stroke-width:0.26458246"
       inkscape:connector-curvature="0" />
    <path
       inkscape:connector-curvature="0"
       id="path1668"
       d="m 108.07387,283.77082 a 8.9535002,8.9535002 0 0 1 -0.003,-0.0946 8.9535002,8.9535002 0 0 1 8.95346,-8.95346 8.9535002,8.9535002 0 0 1 8.95346,8.95346 8.9535002,8.9535002 0 0 1 -0.005,0.0946 h -5.07721 a 3.8753954,3.8753954 0 0 0 0.004,-0.0946 3.8753954,3.8753954 0 0 0 -3.87522,-3.87522 3.8753954,3.8753954 0 0 0 -3.87573,3.87522 3.8753954,3.8753954 0 0 0 0.005,0.0946 z"
       style="fill:#3f6288;fill-opacity:1;stroke-width:0.26458246" />
    <path
       id="path1670"
       d="m 120.89578,283.77082 a 8.9535002,8.9535002 0 0 0 -0.003,0.0946 8.9535002,8.9535002 0 0 0 8.95346,8.95346 8.9535002,8.9535002 0 0 0 8.95346,-8.95346 8.9535002,8.9535002 0 0 0 -0.005,-0.0946 h -5.07721 a 3.8753954,3.8753954 0 0 1 0.004,0.0946 3.8753954,3.8753954 0 0 1 -3.87522,3.87522 3.8753954,3.8753954 0 0 1 -3.87573,-3.87522 3.8753954,3.8753954 0 0 1 0.005,-0.0946 z"
       style="fill:#3f6288;fill-opacity:1;stroke-width:0.26458246"
       inkscape:connector-curvature="0" />
    <path
       style="fill:#3f6288;fill-opacity:1;stroke-width:0.26458246"
       d="m 133.71573,283.77082 a 8.9535002,8.9535002 0 0 1 -0.003,-0.0946 8.9535002,8.9535002 0 0 1 8.95346,-8.95346 8.9535002,8.9535002 0 0 1 8.95346,8.95346 8.9535002,8.9535002 0 0 1 -0.005,0.0946 h -5.07721 a 3.8753954,3.8753954 0 0 0 0.004,-0.0946 3.8753954,3.8753954 0 0 0 -3.87521,-3.87522 3.8753954,3.8753954 0 0 0 -3.87573,3.87522 3.8753954,3.8753954 0 0 0 0.005,0.0946 z"
       id="path1672"
       inkscape:connector-curvature="0" />
    <path
       inkscape:connector-curvature="0"
       style="fill:#3f6288;fill-opacity:1;stroke-width:0.26458246"
       d="m 146.53764,283.77082 a 8.9535002,8.9535002 0 0 0 -0.003,0.0946 8.9535002,8.9535002 0 0 0 8.95346,8.95346 8.9535002,8.9535002 0 0 0 8.95346,-8.95346 8.9535002,8.9535002 0 0 0 -0.005,-0.0946 h -5.07721 a 3.8753954,3.8753954 0 0 1 0.004,0.0946 3.8753954,3.8753954 0 0 1 -3.87522,3.87522 3.8753954,3.8753954 0 0 1 -3.87573,-3.87522 3.8753954,3.8753954 0 0 1 0.005,-0.0946 z"
       id="path1674" />
  </g>
</svg>
