<?xml version="1.0" encoding="UTF-8" standalone="no"?>
<!-- Created with Inkscape (http://www.inkscape.org/) -->

<svg
   xmlns:dc="http://purl.org/dc/elements/1.1/"
   xmlns:cc="http://creativecommons.org/ns#"
   xmlns:rdf="http://www.w3.org/1999/02/22-rdf-syntax-ns#"
   xmlns:svg="http://www.w3.org/2000/svg"
   xmlns="http://www.w3.org/2000/svg"
   xmlns:sodipodi="http://sodipodi.sourceforge.net/DTD/sodipodi-0.dtd"
   xmlns:inkscape="http://www.inkscape.org/namespaces/inkscape"
   width="851.23639"
   height="2725.4004"
   viewBox="0 0 225.22296 721.09556"
   version="1.1"
   id="svg919"
   inkscape:version="0.92.5 (2060ec1f9f, 2020-04-08)"
   sodipodi:docname="right-background.svg">
  <defs
     id="defs913" />
  <sodipodi:namedview
     id="base"
     pagecolor="#ffffff"
     bordercolor="#666666"
     borderopacity="1.0"
     inkscape:pageopacity="0.0"
     inkscape:pageshadow="2"
     inkscape:zoom="0.49497475"
     inkscape:cx="689.10364"
     inkscape:cy="1914.6171"
     inkscape:document-units="mm"
     inkscape:current-layer="layer1"
     showgrid="false"
     units="px"
     inkscape:snap-object-midpoints="true"
     inkscape:object-paths="true"
     inkscape:window-width="1270"
     inkscape:window-height="1404"
     inkscape:window-x="1282"
     inkscape:window-y="243"
     inkscape:window-maximized="0"
     inkscape:snap-page="true"
     inkscape:snap-intersection-paths="true"
     inkscape:snap-smooth-nodes="true"
     inkscape:snap-global="false"
     fit-margin-top="0"
     fit-margin-left="0"
     fit-margin-right="0"
     fit-margin-bottom="0" />
  <metadata
     id="metadata916">
    <rdf:RDF>
      <cc:Work
         rdf:about="">
        <dc:format>image/svg+xml</dc:format>
        <dc:type
           rdf:resource="http://purl.org/dc/dcmitype/StillImage" />
        <dc:title></dc:title>
      </cc:Work>
    </rdf:RDF>
  </metadata>
  <g
     inkscape:label="Layer 1"
     inkscape:groupmode="layer"
     id="layer1"
     transform="translate(13.047084,79.841982)">
    <path
       style="fill:#3f6288;fill-opacity:1;stroke-width:8.89422703"
       d="m 635.03906,878.13672 a 300.98169,300.98169 0 0 0 -300.98047,300.98048 300.98169,300.98169 0 0 0 300.98047,300.9805 300.98169,300.98169 0 0 0 0.008,0 v -170.6954 a 130.27565,130.27565 0 0 1 -0.008,0 130.27565,130.27565 0 0 1 -130.26758,-130.2851 130.27565,130.27565 0 0 1 130.26758,-130.2871 130.27565,130.27565 0 0 1 0.008,0 V 878.13672 a 300.98169,300.98169 0 0 0 -0.008,0 z"
       transform="matrix(0.26458333,0,0,0.26458333,44.153011,-14.974675)"
       id="path1523"
       inkscape:connector-curvature="0" />
    <path
       style="fill:#3f6288;fill-opacity:1;stroke-width:3.99722123"
       d="m 480.76172,323.85742 v 0.008 a 135.26643,135.26643 0 0 0 -0.004,0 135.26643,135.26643 0 0 0 -135.26562,135.26563 58.548151,58.548151 0 0 1 -58.54492,58.55273 58.548151,58.548151 0 0 1 -0.004,0 38.356465,38.356465 0 0 0 -38.35742,38.35547 38.356465,38.356465 0 0 0 38.35742,38.35742 38.356465,38.356465 0 0 0 0.004,0 135.26643,135.26643 0 0 0 0.01,0 38.356465,38.356465 0 0 0 3.23242,-0.1621 135.26643,135.26643 0 0 0 132.02344,-135.10352 58.548151,58.548151 0 0 1 58.54492,-58.55274 58.548151,58.548151 0 0 1 0.004,0 58.548151,58.548151 0 0 1 58.55273,58.55274 58.548151,58.548151 0 0 1 -58.55273,58.54492 135.26643,135.26643 0 0 0 -0.004,0 A 135.26643,135.26643 0 0 0 345.49234,652.9416 135.26643,135.26643 0 0 0 480.75796,788.20722 135.26643,135.26643 0 0 0 616.0314,652.9416 h -76.7207 a 58.548151,58.548151 0 0 1 -58.55274,58.54492 58.548151,58.548151 0 0 1 -58.54687,-58.54492 58.548151,58.548151 0 0 1 58.54687,-58.55274 58.548151,58.548151 0 0 1 0.004,0 v 0.008 A 135.26643,135.26643 0 0 0 616.02734,459.13086 135.26643,135.26643 0 0 0 480.76172,323.85742 Z"
       id="path3899-0-9"
       inkscape:connector-curvature="0"
       transform="matrix(0.26458333,0,0,0.26458333,0,85.333317)" />
    <path
       inkscape:connector-curvature="0"
       id="path1603"
       d="m 188.79832,178.81197 a 22.370978,22.370978 0 0 0 -22.37079,22.3721 22.370978,22.370978 0 0 0 22.37079,22.3708 22.370978,22.370978 0 0 0 22.3708,-22.3708 22.370978,22.370978 0 0 0 -22.3708,-22.3721 z m 0,12.68833 a 9.6829599,9.6829599 0 0 1 9.68247,9.68377 9.6829599,9.6829599 0 0 1 -9.68247,9.68249 9.6829599,9.6829599 0 0 1 -9.68377,-9.68249 9.6829599,9.6829599 0 0 1 9.68377,-9.68377 z"
       style="fill:#3f6288;fill-opacity:1;stroke-width:0.66107863" />
    <path
       inkscape:connector-curvature="0"
       id="path1611"
       d="m 191.5751,105.82133 a 10.653624,10.653624 0 0 0 -10.65354,10.65416 10.653624,10.653624 0 0 0 10.65354,10.65354 10.653624,10.653624 0 0 0 10.65354,-10.65354 10.653624,10.653624 0 0 0 -10.65354,-10.65416 z m 0,6.0425 a 4.6112697,4.6112697 0 0 1 4.61104,4.61166 4.6112697,4.6112697 0 0 1 -4.61104,4.61105 4.6112697,4.6112697 0 0 1 -4.61166,-4.61105 4.6112697,4.6112697 0 0 1 4.61166,-4.61166 z"
       style="fill:#3f6288;fill-opacity:1;stroke-width:0.31482232" />
    <path
       style="fill:#3f6288;fill-opacity:1;stroke-width:1.7175802"
       d="m 480.76172,145.44531 a 25.178575,25.178575 0 0 0 -25.17969,25.17774 25.178575,25.178575 0 0 0 25.17969,25.17773 25.178575,25.178575 0 0 0 11.44531,-2.7539 25.157763,25.157763 0 0 1 13.71289,22.375 25.157763,25.157763 0 0 1 -25.15625,25.16015 25.157763,25.157763 0 0 1 -0.002,0 58.123113,58.123113 0 0 0 -58.1211,58.12305 58.123113,58.123113 0 0 0 58.12305,58.125 v -32.96485 a 25.157763,25.157763 0 0 1 -25.16015,-25.16015 25.157763,25.157763 0 0 1 25.1582,-25.15625 58.123113,58.123113 0 0 0 0.002,0 58.123113,58.123113 0 0 0 58.11914,-58.12695 58.123113,58.123113 0 0 0 -34.33203,-52.95118 25.178575,25.178575 0 0 0 -23.78906,-17.02539 z"
       transform="matrix(0.26458333,0,0,0.26458333,0,85.333317)"
       id="path1481-56"
       inkscape:connector-curvature="0" />
    <path
       inkscape:connector-curvature="0"
       id="path1611-1"
       d="m 83.532741,271.22747 a 5.3619156,5.3619156 0 0 0 -5.361873,5.36218 5.3619156,5.3619156 0 0 0 5.361873,5.36188 5.3619156,5.3619156 0 0 0 5.361873,-5.36188 5.3619156,5.3619156 0 0 0 -5.361873,-5.36218 z m 0,3.04115 a 2.320829,2.320829 0 0 1 2.320713,2.32103 2.320829,2.320829 0 0 1 -2.320713,2.32073 2.320829,2.320829 0 0 1 -2.321025,-2.32073 2.320829,2.320829 0 0 1 2.321025,-2.32103 z"
       style="fill:#3f6288;fill-opacity:1;stroke-width:0.15844849" />
    <path
       inkscape:connector-curvature="0"
       id="path1662"
       d="m 49.325896,239.85545 a 4.0389885,4.0389885 0 0 0 -4.038956,4.03919 4.0389885,4.0389885 0 0 0 4.038956,4.03896 4.0389885,4.0389885 0 0 0 4.038957,-4.03896 4.0389885,4.0389885 0 0 0 -4.038957,-4.03919 z m 0,2.29082 a 1.7482188,1.7482188 0 0 1 1.748132,1.74837 1.7482188,1.7482188 0 0 1 -1.748132,1.74814 1.7482188,1.7482188 0 0 1 -1.748366,-1.74814 1.7482188,1.7482188 0 0 1 1.748366,-1.74837 z"
       style="fill:#3f6288;fill-opacity:1;stroke-width:0.11935504" />
    <path
       style="fill:#3f6288;fill-opacity:1;stroke-width:0.11935504"
       d="m 173.30209,91.688789 a 4.0389885,4.0389885 0 0 0 -4.03896,4.03919 4.0389885,4.0389885 0 0 0 4.03896,4.03896 4.0389885,4.0389885 0 0 0 4.03896,-4.03896 4.0389885,4.0389885 0 0 0 -4.03896,-4.03919 z m 0,2.29082 a 1.7482188,1.7482188 0 0 1 1.74813,1.74837 1.7482188,1.7482188 0 0 1 -1.74813,1.74814 1.7482188,1.7482188 0 0 1 -1.74837,-1.74814 1.7482188,1.7482188 0 0 1 1.74837,-1.74837 z"
       id="path1668"
       inkscape:connector-curvature="0" />
    <path
       style="fill:#3f6288;fill-opacity:1;stroke-width:0.09701659"
       d="m 146.08781,146.30634 a 3.2830527,3.2830527 0 0 0 -3.28303,3.28322 3.2830527,3.2830527 0 0 0 3.28303,3.28303 3.2830527,3.2830527 0 0 0 3.28303,-3.28303 3.2830527,3.2830527 0 0 0 -3.28303,-3.28322 z m 0,1.86207 a 1.4210228,1.4210228 0 0 1 1.42095,1.42115 1.4210228,1.4210228 0 0 1 -1.42095,1.42096 1.4210228,1.4210228 0 0 1 -1.42114,-1.42096 1.4210228,1.4210228 0 0 1 1.42114,-1.42115 z"
       id="path1672"
       inkscape:connector-curvature="0" />
    <path
       style="fill:#3f6288;fill-opacity:1;stroke-width:0.12493965"
       d="m 169.7113,152.54295 a 4.2279725,4.2279725 0 0 0 -4.22794,4.22819 4.2279725,4.2279725 0 0 0 4.22794,4.22794 4.2279725,4.2279725 0 0 0 4.22795,-4.22794 4.2279725,4.2279725 0 0 0 -4.22795,-4.22819 z m 0,2.39801 a 1.8300179,1.8300179 0 0 1 1.82993,1.83018 1.8300179,1.8300179 0 0 1 -1.82993,1.82993 1.8300179,1.8300179 0 0 1 -1.83017,-1.82993 1.8300179,1.8300179 0 0 1 1.83017,-1.83018 z"
       id="path1674"
       inkscape:connector-curvature="0" />
    <path
       inkscape:connector-curvature="0"
       id="path1680"
       d="m 86.934511,174.84346 a 5.7398871,5.7398871 0 0 0 -5.739843,5.74019 5.7398871,5.7398871 0 0 0 5.739843,5.73984 5.7398871,5.7398871 0 0 0 5.739857,-5.73984 5.7398871,5.7398871 0 0 0 -5.739857,-5.74019 z m 0,3.25554 a 2.4844287,2.4844287 0 0 1 2.484309,2.48465 2.4844287,2.4844287 0 0 1 -2.484309,2.48431 2.4844287,2.4844287 0 0 1 -2.484635,-2.48431 2.4844287,2.4844287 0 0 1 2.484635,-2.48465 z"
       style="fill:#3f6288;fill-opacity:1;stroke-width:0.16961782" />
    <path
       style="fill:#3f6288;fill-opacity:1;stroke-width:0.06350891"
       d="m 64.067013,200.54593 a 2.1491489,2.1491489 0 0 0 -2.149132,2.14926 2.1491489,2.1491489 0 0 0 2.149132,2.14913 2.1491489,2.1491489 0 0 0 2.149138,-2.14913 2.1491489,2.1491489 0 0 0 -2.149138,-2.14926 z m 0,1.21895 a 0.93022862,0.93022862 0 0 1 0.930184,0.93031 0.93022862,0.93022862 0 0 1 -0.930184,0.93018 0.93022862,0.93022862 0 0 1 -0.930306,-0.93018 0.93022862,0.93022862 0 0 1 0.930306,-0.93031 z"
       id="path1682"
       inkscape:connector-curvature="0" />
    <path
       inkscape:connector-curvature="0"
       id="path1684"
       d="m 84.099685,195.63224 a 8.9527056,8.9527056 0 0 0 -8.952637,8.95317 8.9527056,8.9527056 0 0 0 8.952637,8.95263 8.9527056,8.9527056 0 0 0 8.952658,-8.95263 8.9527056,8.9527056 0 0 0 -8.952658,-8.95317 z m 0,5.07777 a 3.8750516,3.8750516 0 0 1 3.874865,3.8754 3.8750516,3.8750516 0 0 1 -3.874865,3.87486 3.8750516,3.8750516 0 0 1 -3.875374,-3.87486 3.8750516,3.8750516 0 0 1 3.875374,-3.8754 z"
       style="fill:#3f6288;fill-opacity:1;stroke-width:0.26455894" />
    <path
       style="fill:#3f6288;fill-opacity:1;stroke-width:0.12493965"
       d="m 131.53571,59.938785 a 4.2279725,4.2279725 0 0 0 -4.22794,4.22819 4.2279725,4.2279725 0 0 0 4.22794,4.22794 4.2279725,4.2279725 0 0 0 4.22795,-4.22794 4.2279725,4.2279725 0 0 0 -4.22795,-4.22819 z m 0,2.39801 a 1.8300179,1.8300179 0 0 1 1.82993,1.83018 1.8300179,1.8300179 0 0 1 -1.82993,1.82993 1.8300179,1.8300179 0 0 1 -1.83017,-1.82993 1.8300179,1.8300179 0 0 1 1.83017,-1.83018 z"
       id="path1686"
       inkscape:connector-curvature="0" />
    <path
       style="fill:#3f6288;fill-opacity:1;stroke-width:0.06350891"
       d="m 57.830354,152.35376 a 2.1491489,2.1491489 0 0 0 -2.149132,2.14926 2.1491489,2.1491489 0 0 0 2.149132,2.14913 2.1491489,2.1491489 0 0 0 2.149138,-2.14913 2.1491489,2.1491489 0 0 0 -2.149138,-2.14926 z m 0,1.21895 a 0.93022862,0.93022862 0 0 1 0.930184,0.93031 0.93022862,0.93022862 0 0 1 -0.930184,0.93018 0.93022862,0.93022862 0 0 1 -0.930306,-0.93018 0.93022862,0.93022862 0 0 1 0.930306,-0.93031 z"
       id="path1682-5"
       inkscape:connector-curvature="0" />
    <path
       inkscape:connector-curvature="0"
       id="path1711"
       d="m 103.18745,100.94913 a 1.3931509,1.3931509 0 0 0 -1.39314,1.39322 1.3931509,1.3931509 0 0 0 1.39314,1.39314 1.3931509,1.3931509 0 0 0 1.39315,-1.39314 1.3931509,1.3931509 0 0 0 -1.39315,-1.39322 z m 0,0.79016 a 0.60300562,0.60300562 0 0 1 0.60298,0.60306 0.60300562,0.60300562 0 0 1 -0.60298,0.60298 0.60300562,0.60300562 0 0 1 -0.60305,-0.60298 0.60300562,0.60300562 0 0 1 0.60305,-0.60306 z"
       style="fill:#3f6288;fill-opacity:1;stroke-width:0.04116862" />
    <path
       inkscape:connector-curvature="0"
       id="path1711-4"
       d="m 205.808,99.815137 a 2.7160399,2.7160399 0 0 0 -2.71602,2.716173 2.7160399,2.7160399 0 0 0 2.71602,2.71602 2.7160399,2.7160399 0 0 0 2.71604,-2.71602 2.7160399,2.7160399 0 0 0 -2.71604,-2.716173 z m 0,1.540473 a 1.1755994,1.1755994 0 0 1 1.17555,1.1757 1.1755994,1.1755994 0 0 1 -1.17555,1.17555 1.1755994,1.1755994 0 0 1 -1.17569,-1.17555 1.1755994,1.1755994 0 0 1 1.17569,-1.1757 z"
       style="fill:#3f6288;fill-opacity:1;stroke-width:0.08026095" />
    <path
       inkscape:connector-curvature="0"
       id="path1611-10"
       d="m 176.88254,75.957622 a 7.4408011,7.4408011 0 0 0 7.44118,7.440742 7.4408011,7.4408011 0 0 0 7.44074,-7.440742 7.4408011,7.4408011 0 0 0 -7.44074,-7.440743 7.4408011,7.4408011 0 0 0 -7.44118,7.440743 z m 4.22026,0 a 3.220645,3.220645 0 0 1 3.22092,-3.220485 3.220645,3.220645 0 0 1 3.22049,3.220485 3.220645,3.220645 0 0 1 -3.22049,3.220917 3.220645,3.220645 0 0 1 -3.22092,-3.220917 z"
       style="fill:#3f6288;fill-opacity:1;stroke-width:0.21988107" />
    <path
       style="fill:#3f6288;fill-opacity:1;stroke-width:0.10818584"
       d="m 195.27317,46.894641 a 3.6610213,3.6610213 0 0 0 3.66121,3.66099 3.6610213,3.6610213 0 0 0 3.66099,-3.66099 3.6610213,3.6610213 0 0 0 -3.66099,-3.66101 3.6610213,3.6610213 0 0 0 -3.66121,3.66101 z m 2.07645,0 a 1.5846211,1.5846211 0 0 1 1.58476,-1.58455 1.5846211,1.5846211 0 0 1 1.58454,1.58455 1.5846211,1.5846211 0 0 1 -1.58454,1.58474 1.5846211,1.5846211 0 0 1 -1.58476,-1.58474 z"
       id="path1682-9-4"
       inkscape:connector-curvature="0" />
    <path
       inkscape:connector-curvature="0"
       id="path1711-44"
       d="m 91.329776,43.114935 a 1.3931509,1.3931509 0 0 0 1.39322,1.39314 1.3931509,1.3931509 0 0 0 1.39314,-1.39314 1.3931509,1.3931509 0 0 0 -1.39314,-1.39315 1.3931509,1.3931509 0 0 0 -1.39322,1.39315 z m 0.79016,0 a 0.60300563,0.60300563 0 0 1 0.60306,-0.60298 0.60300563,0.60300563 0 0 1 0.60298,0.60298 0.60300563,0.60300563 0 0 1 -0.60298,0.60305 0.60300563,0.60300563 0 0 1 -0.60306,-0.60305 z"
       style="fill:#3f6288;fill-opacity:1;stroke-width:0.04116862" />
    <path
       style="fill:#3f6288;fill-opacity:1;stroke-width:0.08026095"
       d="m 125.72559,87.601262 a 2.71604,2.71604 0 0 0 2.71617,2.71602 2.71604,2.71604 0 0 0 2.71601,-2.71602 2.71604,2.71604 0 0 0 -2.71601,-2.716044 2.71604,2.71604 0 0 0 -2.71617,2.716044 z m 1.54047,0 a 1.1755994,1.1755994 0 0 1 1.1757,-1.175554 1.1755994,1.1755994 0 0 1 1.17554,1.175554 1.1755994,1.1755994 0 0 1 -1.17554,1.17569 1.1755994,1.1755994 0 0 1 -1.1757,-1.17569 z"
       id="path1713-4"
       inkscape:connector-curvature="0" />
    <path
       inkscape:connector-curvature="0"
       id="path1711-4-7"
       d="m 168.43694,-12.258635 a 2.71604,2.71604 0 0 0 2.71617,2.7160201 2.71604,2.71604 0 0 0 2.71602,-2.7160201 2.71604,2.71604 0 0 0 -2.71602,-2.71604 2.71604,2.71604 0 0 0 -2.71617,2.71604 z m 1.54047,0 a 1.1755994,1.1755994 0 0 1 1.1757,-1.17555 1.1755994,1.1755994 0 0 1 1.17556,1.17555 1.1755994,1.1755994 0 0 1 -1.17556,1.17569 1.1755994,1.1755994 0 0 1 -1.1757,-1.17569 z"
       style="fill:#3f6288;fill-opacity:1;stroke-width:0.08026095" />
    <path
       inkscape:connector-curvature="0"
       id="path1711-44-7"
       d="m 177.69733,18.431534 a 1.3931509,1.3931509 0 0 0 1.39322,1.39314 1.3931509,1.3931509 0 0 0 1.39314,-1.39314 1.3931509,1.3931509 0 0 0 -1.39314,-1.39315 1.3931509,1.3931509 0 0 0 -1.39322,1.39315 z m 0.79016,0 a 0.60300563,0.60300563 0 0 1 0.60306,-0.60298 0.60300563,0.60300563 0 0 1 0.60298,0.60298 0.60300563,0.60300563 0 0 1 -0.60298,0.60305 0.60300563,0.60300563 0 0 1 -0.60306,-0.60305 z"
       style="fill:#3f6288;fill-opacity:1;stroke-width:0.04116862" />
    <path
       inkscape:connector-curvature="0"
       id="path1711-5"
       d="m 16.222038,290.07374 a 1.3931509,1.3931509 0 0 0 -0.02811,1.97005 1.3931509,1.3931509 0 0 0 1.969996,0.0282 1.3931509,1.3931509 0 0 0 0.02817,-1.97 1.3931509,1.3931509 0 0 0 -1.970059,-0.0282 z m 0.550684,0.56666 a 0.60300563,0.60300563 0 0 1 0.852712,0.0122 0.60300563,0.60300563 0 0 1 -0.01219,0.85266 0.60300563,0.60300563 0 0 1 -0.852706,-0.0121 0.60300563,0.60300563 0 0 1 0.01218,-0.85276 z"
       style="fill:#3f6288;fill-opacity:1;stroke-width:0.04116862" />
    <path
       style="fill:#3f6288;fill-opacity:1;stroke-width:0.08026095"
       d="m -12.223939,302.30755 a 2.71604,2.71604 0 0 0 -0.0548,3.84075 2.71604,2.71604 0 0 0 3.8406405,0.0549 2.71604,2.71604 0 0 0 0.05491,-3.84065 2.71604,2.71604 0 0 0 -3.8407525,-0.055 z m 1.073596,1.10473 a 1.1755994,1.1755994 0 0 1 1.6624132,0.0239 1.1755994,1.1755994 0 0 1 -0.02376,1.66231 1.1755994,1.1755994 0 0 1 -1.6624102,-0.0237 1.1755994,1.1755994 0 0 1 0.02376,-1.66252 z"
       id="path1713-9"
       inkscape:connector-curvature="0" />
    <path
       style="fill:#3f6288;fill-opacity:1;stroke-width:0.11376868"
       d="m 53.30212,297.44665 a 3.8499457,3.8499457 0 0 0 -0.07768,5.4442 3.8499457,3.8499457 0 0 0 5.444052,0.0778 3.8499457,3.8499457 0 0 0 0.07784,-5.44407 3.8499457,3.8499457 0 0 0 -5.444213,-0.078 z m 1.521811,1.56595 a 1.6663944,1.6663944 0 0 1 2.356437,0.0338 1.6663944,1.6663944 0 0 1 -0.03368,2.3563 1.6663944,1.6663944 0 0 1 -2.356442,-0.0335 1.6663944,1.6663944 0 0 1 0.03368,-2.35658 z"
       id="path1713-8-6"
       inkscape:connector-curvature="0" />
    <path
       style="fill:#3f6288;fill-opacity:1;stroke-width:0.08026095"
       d="m 32.743015,276.00215 a 2.71604,2.71604 0 0 0 3.840748,0.0548 2.71604,2.71604 0 0 0 0.05489,-3.84064 2.71604,2.71604 0 0 0 -3.840647,-0.0549 2.71604,2.71604 0 0 0 -0.05499,3.84076 z m 1.104735,-1.0736 a 1.1755994,1.1755994 0 0 1 0.02387,-1.66241 1.1755994,1.1755994 0 0 1 1.662302,0.0238 1.1755994,1.1755994 0 0 1 -0.02366,1.6624 1.1755994,1.1755994 0 0 1 -1.662514,-0.0238 z"
       id="path1713-4-2"
       inkscape:connector-curvature="0" />
    <path
       inkscape:connector-curvature="0"
       id="path1711-44-7-1"
       d="m 155.27105,-78.448832 a 1.3931509,1.3931509 0 0 0 1.39322,1.39314 1.3931509,1.3931509 0 0 0 1.39314,-1.39314 1.3931509,1.3931509 0 0 0 -1.39314,-1.39315 1.3931509,1.3931509 0 0 0 -1.39322,1.39315 z m 0.79016,0 a 0.60300563,0.60300563 0 0 1 0.60306,-0.60298 0.60300563,0.60300563 0 0 1 0.60298,0.60298 0.60300563,0.60300563 0 0 1 -0.60298,0.60305 0.60300563,0.60300563 0 0 1 -0.60306,-0.60305 z"
       style="fill:#3f6288;fill-opacity:1;stroke-width:0.04116862" />
    <path
       style="fill:#3f6288;fill-opacity:1;stroke-width:0.40417618"
       d="m 193.46489,412.87891 a 13.677369,13.677369 0 0 1 -13.67726,-13.67806 13.677369,13.677369 0 0 1 13.67726,-13.67726 13.677369,13.677369 0 0 1 13.67726,13.67726 13.677369,13.677369 0 0 1 -13.67726,13.67806 z m 0,-7.7575 a 5.9200549,5.9200549 0 0 0 5.91976,-5.92056 5.9200549,5.9200549 0 0 0 -5.91976,-5.91977 5.9200549,5.9200549 0 0 0 -5.92055,5.91977 5.9200549,5.9200549 0 0 0 5.92055,5.92056 z"
       id="path1969"
       inkscape:connector-curvature="0" />
    <path
       style="fill:#3f6288;fill-opacity:1;stroke-width:0.12493965"
       d="m 147.03273,449.31205 a 4.2279725,4.2279725 0 0 1 -4.22794,-4.22819 4.2279725,4.2279725 0 0 1 4.22794,-4.22794 4.2279725,4.2279725 0 0 1 4.22795,4.22794 4.2279725,4.2279725 0 0 1 -4.22795,4.22819 z m 0,-2.39801 a 1.8300179,1.8300179 0 0 0 1.82993,-1.83018 1.8300179,1.8300179 0 0 0 -1.82993,-1.82993 1.8300179,1.8300179 0 0 0 -1.83017,1.82993 1.8300179,1.8300179 0 0 0 1.83017,1.83018 z"
       id="path1977"
       inkscape:connector-curvature="0" />
    <path
       inkscape:connector-curvature="0"
       id="path1979"
       d="m 114.01547,372.34209 a 3.2830527,3.2830527 0 0 1 -3.28303,-3.28322 3.2830527,3.2830527 0 0 1 3.28303,-3.28303 3.2830527,3.2830527 0 0 1 3.28303,3.28303 3.2830527,3.2830527 0 0 1 -3.28303,3.28322 z m 0,-1.86207 a 1.4210228,1.4210228 0 0 0 1.42095,-1.42115 1.4210228,1.4210228 0 0 0 -1.42095,-1.42096 1.4210228,1.4210228 0 0 0 -1.42114,1.42096 1.4210228,1.4210228 0 0 0 1.42114,1.42115 z"
       style="fill:#3f6288;fill-opacity:1;stroke-width:0.09701659" />
    <path
       inkscape:connector-curvature="0"
       id="path1981"
       d="m 169.7113,408.8686 a 4.2279725,4.2279725 0 0 1 -4.22794,-4.22819 4.2279725,4.2279725 0 0 1 4.22794,-4.22794 4.2279725,4.2279725 0 0 1 4.22795,4.22794 4.2279725,4.2279725 0 0 1 -4.22795,4.22819 z m 0,-2.39801 a 1.8300179,1.8300179 0 0 0 1.82993,-1.83018 1.8300179,1.8300179 0 0 0 -1.82993,-1.82993 1.8300179,1.8300179 0 0 0 -1.83017,1.82993 1.8300179,1.8300179 0 0 0 1.83017,1.83018 z"
       style="fill:#3f6288;fill-opacity:1;stroke-width:0.12493965" />
    <path
       inkscape:connector-curvature="0"
       id="path1983"
       d="m 99.753237,338.83308 a 7.0628497,7.0628497 0 0 1 -7.062795,-7.06322 7.0628497,7.0628497 0 0 1 7.062795,-7.06279 7.0628497,7.0628497 0 0 1 7.062813,7.06279 7.0628497,7.0628497 0 0 1 -7.062813,7.06322 z m 0,-4.00589 a 3.0570543,3.0570543 0 0 0 3.056903,-3.05733 3.0570543,3.0570543 0 0 0 -3.056903,-3.0569 3.0570543,3.0570543 0 0 0 -3.057308,3.0569 3.0570543,3.0570543 0 0 0 3.057308,3.05733 z"
       style="fill:#3f6288;fill-opacity:1;stroke-width:0.20871232" />
    <path
       inkscape:connector-curvature="0"
       id="path1987"
       d="m 57.830354,409.05779 a 2.1491489,2.1491489 0 0 1 -2.149132,-2.14926 2.1491489,2.1491489 0 0 1 2.149132,-2.14913 2.1491489,2.1491489 0 0 1 2.149138,2.14913 2.1491489,2.1491489 0 0 1 -2.149138,2.14926 z m 0,-1.21895 a 0.93022862,0.93022862 0 0 0 0.930184,-0.93031 0.93022862,0.93022862 0 0 0 -0.930184,-0.93018 0.93022862,0.93022862 0 0 0 -0.930306,0.93018 0.93022862,0.93022862 0 0 0 0.930306,0.93031 z"
       style="fill:#3f6288;fill-opacity:1;stroke-width:0.06350891" />
    <path
       style="fill:#3f6288;fill-opacity:1;stroke-width:0.04116862"
       d="m 103.18745,460.46242 a 1.3931509,1.3931509 0 0 1 -1.39314,-1.39322 1.3931509,1.3931509 0 0 1 1.39314,-1.39314 1.3931509,1.3931509 0 0 1 1.39315,1.39314 1.3931509,1.3931509 0 0 1 -1.39315,1.39322 z m 0,-0.79016 a 0.60300562,0.60300562 0 0 0 0.60298,-0.60306 0.60300562,0.60300562 0 0 0 -0.60298,-0.60298 0.60300562,0.60300562 0 0 0 -0.60305,0.60298 0.60300562,0.60300562 0 0 0 0.60305,0.60306 z"
       id="path1991"
       inkscape:connector-curvature="0" />
    <path
       inkscape:connector-curvature="0"
       id="path1995"
       d="m 97.13984,422.85386 a 3.8499456,3.8499456 0 0 1 -3.849916,-3.85013 3.8499456,3.8499456 0 0 1 3.849916,-3.84992 3.8499456,3.8499456 0 0 1 3.84994,3.84992 3.8499456,3.8499456 0 0 1 -3.84994,3.85013 z m 0,-2.1836 a 1.6663944,1.6663944 0 0 0 1.666323,-1.66653 1.6663944,1.6663944 0 0 0 -1.666323,-1.66633 1.6663944,1.6663944 0 0 0 -1.666517,1.66633 1.6663944,1.6663944 0 0 0 1.666517,1.66653 z"
       style="fill:#3f6288;fill-opacity:1;stroke-width:0.11376868" />
    <path
       style="fill:#3f6288;fill-opacity:1;stroke-width:0.04116862"
       d="m 153.08035,455.54879 a 1.3931509,1.3931509 0 0 1 -1.39314,-1.39322 1.3931509,1.3931509 0 0 1 1.39314,-1.39314 1.3931509,1.3931509 0 0 1 1.39315,1.39314 1.3931509,1.3931509 0 0 1 -1.39315,1.39322 z m 0,-0.79016 a 0.60300563,0.60300563 0 0 0 0.60298,-0.60306 0.60300563,0.60300563 0 0 0 -0.60298,-0.60298 0.60300563,0.60300563 0 0 0 -0.60305,0.60298 0.60300563,0.60300563 0 0 0 0.60305,0.60306 z"
       id="path1999"
       inkscape:connector-curvature="0" />
    <path
       style="fill:#3f6288;fill-opacity:1;stroke-width:0.21988107"
       d="m 176.88254,485.45393 a 7.4408011,7.4408011 0 0 1 7.44118,-7.44074 7.4408011,7.4408011 0 0 1 7.44074,7.44074 7.4408011,7.4408011 0 0 1 -7.44074,7.44075 7.4408011,7.4408011 0 0 1 -7.44118,-7.44075 z m 4.22026,0 a 3.220645,3.220645 0 0 0 3.22092,3.22049 3.220645,3.220645 0 0 0 3.22049,-3.22049 3.220645,3.220645 0 0 0 -3.22049,-3.22091 3.220645,3.220645 0 0 0 -3.22092,3.22091 z"
       id="path2001"
       inkscape:connector-curvature="0" />
    <path
       inkscape:connector-curvature="0"
       id="path2003"
       d="m 164.46817,511.30393 a 4.0389887,4.0389887 0 0 1 4.03919,-4.03896 4.0389887,4.0389887 0 0 1 4.03896,4.03896 4.0389887,4.0389887 0 0 1 -4.03896,4.03896 4.0389887,4.0389887 0 0 1 -4.03919,-4.03896 z m 2.29082,0 a 1.7482188,1.7482188 0 0 0 1.74837,1.74813 1.7482188,1.7482188 0 0 0 1.74814,-1.74813 1.7482188,1.7482188 0 0 0 -1.74814,-1.74837 1.7482188,1.7482188 0 0 0 -1.74837,1.74837 z"
       style="fill:#3f6288;fill-opacity:1;stroke-width:0.11935504" />
    <path
       inkscape:connector-curvature="0"
       id="path2005"
       d="m 195.27317,514.51691 a 3.6610213,3.6610213 0 0 1 3.66121,-3.66099 3.6610213,3.6610213 0 0 1 3.66099,3.66099 3.6610213,3.6610213 0 0 1 -3.66099,3.66101 3.6610213,3.6610213 0 0 1 -3.66121,-3.66101 z m 2.07645,0 a 1.5846211,1.5846211 0 0 0 1.58476,1.58455 1.5846211,1.5846211 0 0 0 1.58454,-1.58455 1.5846211,1.5846211 0 0 0 -1.58454,-1.58474 1.5846211,1.5846211 0 0 0 -1.58476,1.58474 z"
       style="fill:#3f6288;fill-opacity:1;stroke-width:0.10818584" />
    <path
       style="fill:#3f6288;fill-opacity:1;stroke-width:0.04116862"
       d="m 91.329776,518.29662 a 1.3931509,1.3931509 0 0 1 1.39322,-1.39314 1.3931509,1.3931509 0 0 1 1.39314,1.39314 1.3931509,1.3931509 0 0 1 -1.39314,1.39315 1.3931509,1.3931509 0 0 1 -1.39322,-1.39315 z m 0.79016,0 a 0.60300563,0.60300563 0 0 0 0.60306,0.60298 0.60300563,0.60300563 0 0 0 0.60298,-0.60298 0.60300563,0.60300563 0 0 0 -0.60298,-0.60305 0.60300563,0.60300563 0 0 0 -0.60306,0.60305 z"
       id="path2007"
       inkscape:connector-curvature="0" />
    <path
       inkscape:connector-curvature="0"
       id="path2009"
       d="m 125.72559,473.81029 a 2.71604,2.71604 0 0 1 2.71617,-2.71602 2.71604,2.71604 0 0 1 2.71601,2.71602 2.71604,2.71604 0 0 1 -2.71601,2.71605 2.71604,2.71604 0 0 1 -2.71617,-2.71605 z m 1.54047,0 a 1.1755994,1.1755994 0 0 0 1.1757,1.17556 1.1755994,1.1755994 0 0 0 1.17554,-1.17556 1.1755994,1.1755994 0 0 0 -1.17554,-1.17569 1.1755994,1.1755994 0 0 0 -1.1757,1.17569 z"
       style="fill:#3f6288;fill-opacity:1;stroke-width:0.08026095" />
    <path
       style="fill:#3f6288;fill-opacity:1;stroke-width:0.04116862"
       d="m 177.69733,542.98002 a 1.3931509,1.3931509 0 0 1 1.39322,-1.39314 1.3931509,1.3931509 0 0 1 1.39314,1.39314 1.3931509,1.3931509 0 0 1 -1.39314,1.39315 1.3931509,1.3931509 0 0 1 -1.39322,-1.39315 z m 0.79016,0 a 0.60300563,0.60300563 0 0 0 0.60306,0.60298 0.60300563,0.60300563 0 0 0 0.60298,-0.60298 0.60300563,0.60300563 0 0 0 -0.60298,-0.60305 0.60300563,0.60300563 0 0 0 -0.60306,0.60305 z"
       id="path2015"
       inkscape:connector-curvature="0" />
    <path
       style="fill:#3f6288;fill-opacity:1;stroke-width:0.04116862"
       d="m 155.27105,639.86039 a 1.3931509,1.3931509 0 0 1 1.39322,-1.39314 1.3931509,1.3931509 0 0 1 1.39314,1.39314 1.3931509,1.3931509 0 0 1 -1.39314,1.39315 1.3931509,1.3931509 0 0 1 -1.39322,-1.39315 z m 0.79016,0 a 0.60300563,0.60300563 0 0 0 0.60306,0.60298 0.60300563,0.60300563 0 0 0 0.60298,-0.60298 0.60300563,0.60300563 0 0 0 -0.60298,-0.60305 0.60300563,0.60300563 0 0 0 -0.60306,0.60305 z"
       id="path2017"
       inkscape:connector-curvature="0" />
  </g>
</svg>
