<?xml version="1.0" encoding="UTF-8" standalone="no"?>
<svg
   xmlns:dc="http://purl.org/dc/elements/1.1/"
   xmlns:cc="http://creativecommons.org/ns#"
   xmlns:rdf="http://www.w3.org/1999/02/22-rdf-syntax-ns#"
   xmlns:svg="http://www.w3.org/2000/svg"
   xmlns="http://www.w3.org/2000/svg"
   id="svg8"
   version="1.1"
   viewBox="0 0 92.466346 30.353375"
   height="114.72102"
   width="349.47803">
  <defs
     id="defs2" />
  <metadata
     id="metadata5">
    <rdf:RDF>
      <cc:Work
         rdf:about="">
        <dc:format>image/svg+xml</dc:format>
        <dc:type
           rdf:resource="http://purl.org/dc/dcmitype/StillImage" />
        <dc:title></dc:title>
      </cc:Work>
    </rdf:RDF>
  </metadata>
  <g
     transform="translate(-0.17132,-257.35596)"
     id="layer1">
    <text
       id="text3715"
       y="287.58444"
       x="13.094174"
       style="font-style:normal;font-weight:normal;font-size:10.58333302px;line-height:1.25;font-family:sans-serif;letter-spacing:0px;word-spacing:0px;fill:#000000;fill-opacity:1;stroke:none;stroke-width:0.26458332"
       xml:space="preserve"><tspan
         id="tspan3763"
         style="font-style:normal;font-variant:normal;font-weight:normal;font-stretch:normal;font-size:8.81944466px;font-family:sans-serif;-inkscape-font-specification:'sans-serif, Normal';font-variant-ligatures:normal;font-variant-caps:normal;font-variant-numeric:normal;font-feature-settings:normal;text-align:start;writing-mode:lr-tb;text-anchor:start;stroke-width:0.26458332"
         y="287.58444"
         x="13.094174">THERAPEUTICS</tspan></text>
    <g
       transform="translate(-20.238324,57.168239)"
       id="text3815"
       style="font-style:normal;font-weight:normal;font-size:10.58333302px;line-height:1.25;font-family:sans-serif;letter-spacing:0px;word-spacing:0px;fill:#000000;fill-opacity:1;stroke:none;stroke-width:0.26458332"
       aria-label="Bolden">
      <path
         id="path3840"
         style="font-style:normal;font-variant:normal;font-weight:normal;font-stretch:normal;font-size:28.22222137px;font-family:sans-serif;-inkscape-font-specification:'sans-serif, Normal';font-variant-ligatures:normal;font-variant-caps:normal;font-variant-numeric:normal;font-feature-settings:normal;text-align:start;writing-mode:lr-tb;text-anchor:start;stroke-width:0.26458332"
         d="m 23.193281,211.80458 v 7.53787 h 4.464844 q 2.246202,0 3.321072,-0.92329 1.08865,-0.93707 1.08865,-2.85254 0,-1.92925 -1.08865,-2.83876 -1.07487,-0.92328 -3.321072,-0.92328 z m 0,-8.46116 v 6.20118 h 4.120335 q 2.039496,0 3.031683,-0.75793 1.005968,-0.7717 1.005968,-2.34266 0,-1.55718 -1.005968,-2.32889 -0.992187,-0.7717 -3.031683,-0.7717 z m -2.783637,-2.28754 h 7.110677 q 3.183268,0 4.905816,1.32292 1.722548,1.32291 1.722548,3.76204 0,1.88791 -0.881945,3.00412 -0.881944,1.11621 -2.590711,1.39182 2.053276,0.44097 3.183268,1.84657 1.143771,1.39182 1.143771,3.48644 0,2.75608 -1.874131,4.25814 -1.874132,1.50206 -5.333008,1.50206 h -7.386285 z" />
      <path
         id="path3844"
         style="font-style:normal;font-variant:normal;font-weight:normal;font-stretch:normal;font-size:28.22222137px;font-family:sans-serif;-inkscape-font-specification:'sans-serif, Normal';font-variant-ligatures:normal;font-variant-caps:normal;font-variant-numeric:normal;font-feature-settings:normal;text-align:start;writing-mode:lr-tb;text-anchor:start;stroke-width:0.26458332"
         d="m 56.927659,200.18772 h 2.53559 v 21.44227 h -2.53559 z" />
      <path
         id="path3846"
         style="font-style:normal;font-variant:normal;font-weight:normal;font-stretch:normal;font-size:28.22222137px;font-family:sans-serif;-inkscape-font-specification:'sans-serif, Normal';font-variant-ligatures:normal;font-variant-caps:normal;font-variant-numeric:normal;font-feature-settings:normal;text-align:start;writing-mode:lr-tb;text-anchor:start;stroke-width:0.26458332"
         d="m 74.924834,208.53863 v -8.35091 h 2.53559 v 21.44227 h -2.53559 v -2.3151 q -0.799262,1.37803 -2.025716,2.05327 -1.212673,0.66146 -2.921441,0.66146 -2.797417,0 -4.561306,-2.23242 -1.750109,-2.23242 -1.750109,-5.87044 0,-3.63802 1.750109,-5.87045 1.763889,-2.23242 4.561306,-2.23242 1.708768,0 2.921441,0.67524 1.226454,0.66146 2.025716,2.0395 z m -8.640299,5.38813 q 0,2.79741 1.143772,4.39594 1.157552,1.58474 3.169487,1.58474 2.011936,0 3.169488,-1.58474 1.157552,-1.59853 1.157552,-4.39594 0,-2.79742 -1.157552,-4.38216 -1.157552,-1.59853 -3.169488,-1.59853 -2.011935,0 -3.169487,1.59853 -1.143772,1.58474 -1.143772,4.38216 z" />
      <path
         id="path3848"
         style="font-style:normal;font-variant:normal;font-weight:normal;font-stretch:normal;font-size:28.22222137px;font-family:sans-serif;-inkscape-font-specification:'sans-serif, Normal';font-variant-ligatures:normal;font-variant-caps:normal;font-variant-numeric:normal;font-feature-settings:normal;text-align:start;writing-mode:lr-tb;text-anchor:start;stroke-width:0.26458332"
         d="m 95.884796,213.27908 v 1.24023 H 84.226593 q 0.165365,2.61828 1.570964,3.99631 1.419379,1.36426 3.941189,1.36426 1.46072,0 2.824978,-0.35829 1.378038,-0.35829 2.728515,-1.07487 v 2.39779 q -1.364257,0.57877 -2.797417,0.88194 -1.43316,0.30317 -2.90766,0.30317 -3.693143,0 -5.856663,-2.14974 -2.149739,-2.14974 -2.149739,-5.81532 0,-3.7896 2.039496,-6.00825 2.053277,-2.23242 5.525933,-2.23242 3.114367,0 4.919597,2.01194 1.81901,1.99815 1.81901,5.44325 z m -2.53559,-0.74414 q -0.02756,-2.08084 -1.171333,-3.32107 -1.129991,-1.24024 -3.004123,-1.24024 -2.122179,0 -3.403754,1.19889 -1.267795,1.1989 -1.460721,3.3762 z" />
      <path
         id="path3850"
         style="font-style:normal;font-variant:normal;font-weight:normal;font-stretch:normal;font-size:28.22222137px;font-family:sans-serif;-inkscape-font-specification:'sans-serif, Normal';font-variant-ligatures:normal;font-variant-caps:normal;font-variant-numeric:normal;font-feature-settings:normal;text-align:start;writing-mode:lr-tb;text-anchor:start;stroke-width:0.26458332"
         d="m 112.87601,212.31445 v 9.31554 h -2.53559 v -9.23286 q 0,-2.19108 -0.85439,-3.27973 -0.85438,-1.08865 -2.56315,-1.08865 -2.05327,0 -3.23839,1.30914 -1.18511,1.30914 -1.18511,3.56912 v 8.72298 h -2.549371 v -15.43403 h 2.549371 v 2.39779 q 0.9095,-1.39182 2.13596,-2.08084 1.24023,-0.68902 2.85254,-0.68902 2.65961,0 4.02387,1.65365 1.36426,1.63986 1.36426,4.83691 z" />
    </g>
    <flowRoot
       transform="matrix(0.26458333,0,0,0.26458333,0,164.70832)"
       style="font-style:normal;font-weight:normal;font-size:40px;line-height:1.25;font-family:sans-serif;letter-spacing:0px;word-spacing:0px;fill:#000000;fill-opacity:1;stroke:none"
       id="flowRoot3853"
       xml:space="preserve"><flowRegion
         id="flowRegion3855"><rect
           y="335.34512"
           x="93.944183"
           height="132.32999"
           width="309.10669"
           id="rect3857" /></flowRegion><flowPara
         id="flowPara3859"></flowPara></flowRoot>    <flowRoot
       transform="matrix(0.26458333,0,0,0.26458333,0,164.70832)"
       style="font-style:normal;font-weight:normal;font-size:40px;line-height:1.25;font-family:sans-serif;letter-spacing:0px;word-spacing:0px;fill:#000000;fill-opacity:1;stroke:none"
       id="flowRoot3865"
       xml:space="preserve"><flowRegion
         id="flowRegion3867"><rect
           y="326.25375"
           x="94.954338"
           height="137.38075"
           width="286.88333"
           id="rect3869" /></flowRegion><flowPara
         id="flowPara3871" /></flowRoot>    <flowRoot
       transform="matrix(0.26458333,0,0,0.26458333,0,164.70832)"
       style="font-style:normal;font-weight:normal;font-size:40px;line-height:1.25;font-family:sans-serif;letter-spacing:0px;word-spacing:0px;fill:#000000;fill-opacity:1;stroke:none"
       id="flowRoot3873"
       xml:space="preserve"><flowRegion
         id="flowRegion3875"><rect
           y="323.2233"
           x="41.416256"
           height="161.6244"
           width="417.19299"
           id="rect3877" /></flowRegion><flowPara
         id="flowPara3879"></flowPara></flowRoot>    <path
       id="path3899"
       d="m 25.515267,260.96003 a 8.9535293,8.9535293 0 0 0 -8.953457,8.95398 8.9535293,8.9535293 0 0 0 8.953457,8.95346 8.9535293,8.9535293 0 0 0 8.953458,-8.95346 8.9535293,8.9535293 0 0 0 -8.953458,-8.95398 z m 0,5.07825 a 3.8754081,3.8754081 0 0 1 3.875215,3.87573 3.8754081,3.8754081 0 0 1 -3.875215,3.87522 3.8754081,3.8754081 0 0 1 -3.875733,-3.87522 3.8754081,3.8754081 0 0 1 3.875733,-3.87573 z"
       style="fill:#3f6288;fill-opacity:1;stroke-width:0.26458332" />
  </g>
</svg>
