<?xml version="1.0" encoding="UTF-8" standalone="no"?>
<svg
   xmlns:dc="http://purl.org/dc/elements/1.1/"
   xmlns:cc="http://creativecommons.org/ns#"
   xmlns:rdf="http://www.w3.org/1999/02/22-rdf-syntax-ns#"
   xmlns:svg="http://www.w3.org/2000/svg"
   xmlns="http://www.w3.org/2000/svg"
   id="svg919"
   version="1.1"
   viewBox="0 0 225.36173 350.50227"
   height="1324.7329"
   width="851.76086">
  <defs
     id="defs913" />
  <metadata
     id="metadata916">
    <rdf:RDF>
      <cc:Work
         rdf:about="">
        <dc:format>image/svg+xml</dc:format>
        <dc:type
           rdf:resource="http://purl.org/dc/dcmitype/StillImage" />
        <dc:title></dc:title>
      </cc:Work>
    </rdf:RDF>
  </metadata>
  <g
     transform="translate(13.047084,14.974662)"
     id="layer1">
    <path
       id="path1660"
       d="m 105.05864,181.53769 a 1.2042044,1.2041963 52.522938 0 0 0.22291,-1.68838 1.2042044,1.2041963 52.522938 0 0 -1.68832,-0.22297 1.2042044,1.2041963 52.522938 0 0 -0.22296,1.68833 1.2042044,1.2041963 52.522938 0 0 1.68837,0.22302 z m -0.41556,-0.54202 a 0.5212228,0.52121928 52.522938 0 1 -0.73079,-0.0966 0.5212228,0.52121928 52.522938 0 1 0.0965,-0.73074 0.5212228,0.52121928 52.522938 0 1 0.7308,0.0965 0.5212228,0.52121928 52.522938 0 1 -0.0965,0.73084 z"
       style="fill:#3f6288;fill-opacity:1;stroke-width:0.035585" />
    <path
       style="fill:#3f6288;fill-opacity:1;stroke-width:0.08584681"
       d="m 144.80832,297.29171 a 2.9050661,2.9050661 0 0 0 0.53777,-4.07312 2.9050661,2.9050661 0 0 0 -4.07299,-0.53788 2.9050661,2.9050661 0 0 0 -0.53787,4.07299 2.9050661,2.9050661 0 0 0 4.07309,0.53801 z m -1.00252,-1.3076 a 1.2574166,1.2574166 0 0 1 -1.76298,-0.23293 1.2574166,1.2574166 0 0 1 0.23281,-1.76288 1.2574166,1.2574166 0 0 1 1.763,0.23271 1.2574166,1.2574166 0 0 1 -0.23283,1.7631 z"
       id="path1662" />
    <path
       style="fill:#3f6288;fill-opacity:1;stroke-width:0.12493965"
       d="m 6.5450691,269.94476 a 4.2279725,4.2279725 0 0 0 0.78267,-5.92794 4.2279725,4.2279725 0 0 0 -5.9277498,-0.78282 4.2279725,4.2279725 0 0 0 -0.78281996,5.92775 4.2279725,4.2279725 0 0 0 5.92789976,0.78301 z m -1.45905,-1.90305 a 1.8300179,1.8300179 0 0 1 -2.5657898,-0.33902 1.8300179,1.8300179 0 0 1 0.33882,-2.56564 1.8300179,1.8300179 0 0 1 2.5658198,0.33867 1.8300179,1.8300179 0 0 1 -0.33885,2.56599 z"
       id="path1676" />
    <path
       id="path1713-9"
       d="m 212.28591,280.72781 a 2.71604,2.71604 0 0 0 -2.29339,-3.08135 2.71604,2.71604 0 0 0 -3.08132,2.29325 2.71604,2.71604 0 0 0 2.29325,3.08133 2.71604,2.71604 0 0 0 3.08148,-2.29324 z m -1.52416,-0.22349 a 1.1755994,1.1755994 0 0 1 -1.33383,0.99252 1.1755994,1.1755994 0 0 1 -0.99253,-1.33369 1.1755994,1.1755994 0 0 1 1.3337,-0.99267 1.1755994,1.1755994 0 0 1 0.99266,1.33385 z"
       style="fill:#3f6288;fill-opacity:1;stroke-width:0.08026095" />
    <path
       style="fill:#3f6288;fill-opacity:1;stroke-width:0.09701659"
       d="m 53.040927,146.30636 a 3.2830527,3.2830527 0 0 1 3.28302,3.28322 3.2830527,3.2830527 0 0 1 -3.28302,3.28303 3.2830527,3.2830527 0 0 1 -3.28303,-3.28303 3.2830527,3.2830527 0 0 1 3.28303,-3.28322 z m 0,1.86207 a 1.4210228,1.4210228 0 0 0 -1.42096,1.42116 1.4210228,1.4210228 0 0 0 1.42096,1.42095 1.4210228,1.4210228 0 0 0 1.42114,-1.42095 1.4210228,1.4210228 0 0 0 -1.42114,-1.42116 z"
       id="path1979" />
    <path
       style="fill:#3f6288;fill-opacity:1;stroke-width:0.12493965"
       d="m 30.173389,167.28404 a 4.2279725,4.2279725 0 0 1 4.22794,4.22819 4.2279725,4.2279725 0 0 1 -4.22794,4.22794 4.2279725,4.2279725 0 0 1 -4.22795,-4.22794 4.2279725,4.2279725 0 0 1 4.22795,-4.22819 z m 0,2.39801 a 1.8300179,1.8300179 0 0 0 -1.82993,1.83018 1.8300179,1.8300179 0 0 0 1.82993,1.82993 1.8300179,1.8300179 0 0 0 1.83017,-1.82993 1.8300179,1.8300179 0 0 0 -1.83017,-1.83018 z"
       id="path1981" />
    <path
       id="path1999"
       d="m 46.048387,105.86279 a 1.3931509,1.3931509 0 0 1 1.39315,1.39322 1.3931509,1.3931509 0 0 1 -1.39315,1.39314 1.3931509,1.3931509 0 0 1 -1.39315,-1.39314 1.3931509,1.3931509 0 0 1 1.39315,-1.39322 z m 0,0.79016 a 0.60300563,0.60300563 0 0 0 -0.60298,0.60306 0.60300563,0.60300563 0 0 0 0.60298,0.60298 0.60300563,0.60300563 0 0 0 0.60305,-0.60298 0.60300563,0.60300563 0 0 0 -0.60305,-0.60306 z"
       style="fill:#3f6288;fill-opacity:1;stroke-width:0.04116862" />
    <path
       style="fill:#3f6288;fill-opacity:1;stroke-width:0.08026201"
       d="m 1.9656341,47.839596 a 2.7160753,2.7160753 0 0 1 -2.7162153,2.716052 2.7160753,2.7160753 0 0 1 -2.7160521,-2.716052 2.7160753,2.7160753 0 0 1 2.7160521,-2.716067 2.7160753,2.7160753 0 0 1 2.7162153,2.716067 z m -1.5404976,0 a 1.1756146,1.1756146 0 0 0 -1.1757177,-1.175562 1.1756146,1.1756146 0 0 0 -1.1755545,1.175562 1.1756146,1.1756146 0 0 0 1.1755545,1.175703 1.1756146,1.1756146 0 0 0 1.1757177,-1.175703 z"
       id="path2005" />
    <path
       id="path2011"
       d="m 27.667987,-10.746759 a 1.2041659,1.2041659 0 0 1 -1.204223,1.204157 1.2041659,1.2041659 0 0 1 -1.204157,-1.204157 1.2041659,1.2041659 0 0 1 1.204157,-1.204166 1.2041659,1.2041659 0 0 1 1.204223,1.204166 z m -0.682972,0 a 0.52120611,0.52120611 0 0 0 -0.521251,-0.521184 0.52120611,0.52120611 0 0 0 -0.521189,0.521184 0.52120611,0.52120611 0 0 0 0.521189,0.521246 0.52120611,0.52120611 0 0 0 0.521251,-0.521246 z"
       style="fill:#3f6288;fill-opacity:1;stroke-width:0.03558397" />
    <path
       id="path2015"
       d="m 21.431407,18.431548 a 1.3931509,1.3931509 0 0 1 -1.39322,1.39314 1.3931509,1.3931509 0 0 1 -1.39314,-1.39314 1.3931509,1.3931509 0 0 1 1.39314,-1.39315 1.3931509,1.3931509 0 0 1 1.39322,1.39315 z m -0.79016,0 a 0.60300563,0.60300563 0 0 0 -0.60306,-0.60298 0.60300563,0.60300563 0 0 0 -0.60298,0.60298 0.60300563,0.60300563 0 0 0 0.60298,0.60306 0.60300563,0.60300563 0 0 0 0.60306,-0.60306 z"
       style="fill:#3f6288;fill-opacity:1;stroke-width:0.04116862" />
    <path
       style="fill:#3f6288;fill-opacity:1;stroke-width:0.22546844"
       d="m 17.003314,248.31838 a 7.6298786,7.6298786 0 0 1 7.629818,7.63026 7.6298786,7.6298786 0 0 1 -7.629818,7.62982 7.6298786,7.6298786 0 0 1 -7.6298179,-7.62982 7.6298786,7.6298786 0 0 1 7.6298179,-7.63026 z m 0,4.3275 a 3.3024846,3.3024846 0 0 0 -3.30232,3.30276 3.3024846,3.3024846 0 0 0 3.30232,3.30233 3.3024846,3.3024846 0 0 0 3.302761,-3.30233 3.3024846,3.3024846 0 0 0 -3.302761,-3.30276 z"
       id="path2019" />
    <path
       style="fill:#3f6288;fill-opacity:1;stroke-width:0.16961974"
       d="m 167.52736,265.05462 a 5.7399518,5.7399518 0 0 0 1.06255,-8.04786 5.7399518,5.7399518 0 0 0 -8.04758,-1.06275 5.7399518,5.7399518 0 0 0 -1.06278,8.04758 5.7399518,5.7399518 0 0 0 8.04781,1.06303 z m -1.98084,-2.5836 a 2.4844566,2.4844566 0 0 1 -3.48335,-0.46026 2.4844566,2.4844566 0 0 1 0.45999,-3.48314 2.4844566,2.4844566 0 0 1 3.48339,0.45978 2.4844566,2.4844566 0 0 1 -0.46003,3.48362 z"
       id="path1684-5" />
  </g>
</svg>
