<?xml version="1.0" encoding="UTF-8"?>
<!-- Created with Inkscape (http://www.inkscape.org/) -->
<svg width="23.019mm" height="15.875mm" version="1.1" viewBox="0 0 23.019 15.875" xmlns="http://www.w3.org/2000/svg">
 <g transform="translate(-57.542 -81.44)" stroke-width=".64372">
  <path transform="matrix(.26458 0 0 .26458 54.896 78.794)" d="m15 10a5 5 0 0 0-5 5 5 5 0 0 0 5 5h77a5 5 0 0 0 5-5 5 5 0 0 0-5-5h-40z" style="paint-order:fill markers stroke"/>
  <path transform="matrix(.26458 0 0 .26458 54.896 78.794)" d="m15 35a5 5 0 0 0-5 5 5 5 0 0 0 5 5h77a5 5 0 0 0 5-5 5 5 0 0 0-5-5h-40z" style="paint-order:fill markers stroke"/>
  <path transform="matrix(.26458 0 0 .26458 54.896 78.794)" d="m15 60a5 5 0 0 0-5 5 5 5 0 0 0 5 5h50a5 5 0 0 0 5-5 5 5 0 0 0-5-5h-40z" style="paint-order:fill markers stroke"/>
 </g>
</svg>
